<svg width="120" height="99" viewBox="0 0 120 99" fill="none" xmlns="http://www.w3.org/2000/svg">
<path d="M35.9385 35.0955V24.1109L0 57.8709L35.9385 91.6369V80.6523L11.6185 57.8709L35.9385 35.0955Z" fill="url(#paint0_linear_2_20)"/>
<path d="M5.80923 52.4122L0 57.8707L35.9385 91.6369V80.6523L5.80923 52.4122Z" fill="url(#paint1_linear_2_20)"/>
<path d="M59.0829 10.9785V0L95.0215 33.76L59.0829 67.52V56.5415L83.4031 33.76L59.0829 10.9785Z" fill="url(#paint2_linear_2_20)"/>
<path d="M89.2123 28.3017L95.0215 33.7601L59.0829 67.52V56.5417L89.2123 28.3017Z" fill="url(#paint3_linear_2_20)"/>
<path d="M57.7109 31.4216H69.3354L37.3909 61.4338H25.6863L57.7109 31.4216Z" fill="url(#paint4_linear_2_20)"/>
<path d="M52.6157 84.9231L51.4595 81.7686H46.7852L45.7447 84.9231H44.5059L48.503 73.6585H49.6592L53.7719 84.9231H52.6157ZM47.1651 80.744H51.0796L49.0645 75.2769L47.1651 80.744ZM63.2357 76.9286C63.9514 76.9286 64.5458 77.1822 65.0191 77.6886C65.4929 78.184 65.7292 78.8726 65.7292 79.7532V84.9231H64.6061V80.2486C64.6061 79.4339 64.4523 78.8505 64.144 78.4979C63.8357 78.1348 63.4338 77.9532 62.9378 77.9532C62.3323 77.9532 61.8591 78.1895 61.5176 78.6634C61.1873 79.1255 60.9946 79.7588 60.9396 80.5625V84.9231H59.8164V80.2486C59.8164 79.4339 59.6623 78.8505 59.354 78.4979C59.0456 78.1348 58.6437 77.9532 58.1482 77.9532C57.4765 77.9532 56.97 78.2339 56.6287 78.7951C56.2983 79.3569 56.1332 80.1114 56.1332 81.0579V84.9231H55.01V77.1932H56.1332V78.3988C56.3864 77.9255 56.7057 77.5619 57.0911 77.3089C57.4876 77.0554 57.939 76.9286 58.4455 76.9286C59.0071 76.9286 59.4971 77.0831 59.9156 77.3914C60.334 77.6886 60.6258 78.1182 60.7909 78.6794C61.0332 78.1292 61.3635 77.6997 61.7821 77.3914C62.2006 77.0831 62.6849 76.9286 63.2357 76.9286ZM68.3317 84.9231V77.1932H69.4548V84.9231H68.3317ZM68.8929 75.6899C68.64 75.6899 68.4252 75.6019 68.2486 75.4259C68.0837 75.2499 68.0012 75.0351 68.0012 74.7815C68.0012 74.5397 68.0837 74.336 68.2486 74.1705C68.4252 73.9945 68.64 73.9065 68.8929 73.9065C69.1354 73.9065 69.3446 73.9945 69.5206 74.1705C69.6966 74.336 69.7846 74.5452 69.7846 74.7982C69.7846 75.0406 69.6966 75.2499 69.5206 75.4259C69.3446 75.6019 69.1354 75.6899 68.8929 75.6899ZM75.9384 76.9286C76.2031 76.9286 76.456 76.9674 76.6984 77.0443V78.0683C76.4671 77.9582 76.2141 77.9034 75.9384 77.9034C75.4652 77.9034 75.0246 78.0357 74.6172 78.2997C74.2098 78.5643 73.8794 78.9495 73.6264 79.456C73.384 79.9514 73.2628 80.5403 73.2628 81.2234V84.9231H72.1397V77.1932H73.2628V78.7459C73.5606 78.1729 73.9348 77.7274 74.3864 77.408C74.8486 77.0886 75.3661 76.9286 75.9384 76.9286ZM88.6818 84.9231L87.5255 81.7686H82.8517L81.8111 84.9231H80.5723L84.5692 73.6585H85.7255L89.8381 84.9231H88.6818ZM83.2314 80.744H87.1458L85.1311 75.2769L83.2314 80.744ZM94.9409 76.9286C95.6788 76.9286 96.3341 77.1052 96.9065 77.4572C97.4905 77.8099 97.9415 78.2997 98.2609 78.9274C98.5914 79.544 98.7569 80.2486 98.7569 81.0419C98.7569 81.8455 98.5914 82.5612 98.2609 83.1889C97.9311 83.8166 97.4738 84.3065 96.8905 84.6591C96.3065 85.0111 95.6461 85.1871 94.9083 85.1871C94.3575 85.1871 93.8511 85.0665 93.3889 84.824C92.9261 84.5705 92.5354 84.224 92.216 83.7834V84.9231H91.0929V72.9317H92.216V78.3495C92.5354 77.8979 92.9261 77.5508 93.3889 77.3089C93.8621 77.0554 94.3797 76.9286 94.9409 76.9286ZM94.9409 84.1631C95.4585 84.1631 95.9212 84.0314 96.3286 83.7668C96.736 83.5028 97.0554 83.1335 97.2868 82.6603C97.5181 82.1871 97.6332 81.6474 97.6332 81.0419C97.6332 80.4468 97.5181 79.9182 97.2868 79.456C97.0554 78.9828 96.736 78.6135 96.3286 78.3495C95.9212 78.0849 95.4585 77.9532 94.9409 77.9532C94.4129 77.9532 93.9391 78.0849 93.5206 78.3495C93.1132 78.6135 92.7938 78.9828 92.5631 79.456C92.3317 79.9292 92.216 80.4634 92.216 81.0579C92.216 81.6529 92.3317 82.1871 92.5631 82.6603C92.7938 83.1335 93.1132 83.5028 93.5206 83.7668C93.9391 84.0314 94.4129 84.1631 94.9409 84.1631ZM107.519 77.1932V84.9231H106.396V83.7834C106.077 84.224 105.686 84.5705 105.224 84.824C104.761 85.0665 104.255 85.1871 103.704 85.1871C102.967 85.1871 102.306 85.0111 101.722 84.6591C101.138 84.3065 100.682 83.8166 100.351 83.1889C100.021 82.5612 99.856 81.8455 99.856 81.0419C99.856 80.2486 100.015 79.544 100.335 78.9274C100.665 78.2997 101.116 77.8099 101.689 77.4572C102.273 77.1052 102.934 76.9286 103.671 76.9286C104.233 76.9286 104.745 77.0554 105.207 77.3089C105.681 77.5508 106.077 77.8979 106.396 78.3495V77.1932H107.519ZM103.671 84.1631C104.2 84.1631 104.668 84.0314 105.075 83.7668C105.494 83.5028 105.818 83.1335 106.05 82.6603C106.281 82.1871 106.396 81.6529 106.396 81.0579C106.396 80.4634 106.281 79.9292 106.05 79.456C105.818 78.9828 105.494 78.6135 105.075 78.3495C104.668 78.0849 104.2 77.9532 103.671 77.9532C103.154 77.9532 102.691 78.0849 102.284 78.3495C101.876 78.6135 101.557 78.9828 101.326 79.456C101.095 79.9182 100.979 80.4468 100.979 81.0419C100.979 81.6474 101.095 82.1871 101.326 82.6603C101.557 83.1335 101.876 83.5028 102.284 83.7668C102.691 84.0314 103.154 84.1631 103.671 84.1631ZM112.319 85.1871C111.57 85.1871 110.909 85.0277 110.337 84.7083C109.775 84.3889 109.345 83.9379 109.048 83.3539L110.056 82.8585C110.463 83.7286 111.262 84.1631 112.45 84.1631C113.023 84.1631 113.497 84.0585 113.871 83.8492C114.246 83.64 114.433 83.3157 114.433 82.8751C114.433 82.4234 114.279 82.0874 113.97 81.8677C113.673 81.6474 113.145 81.504 112.385 81.4382C111.327 81.3502 110.568 81.1132 110.105 80.728C109.654 80.3422 109.428 79.8302 109.428 79.192C109.428 78.4757 109.687 77.92 110.204 77.5237C110.722 77.1274 111.432 76.9286 112.335 76.9286C113.866 76.9286 114.906 77.5348 115.457 78.7459L114.449 79.2412C114.262 78.8006 113.987 78.4757 113.623 78.2665C113.271 78.0579 112.814 77.9532 112.252 77.9532C111.68 77.9532 111.239 78.0579 110.931 78.2665C110.634 78.4757 110.485 78.7735 110.485 79.1588C110.485 79.5219 110.645 79.8191 110.964 80.0505C111.295 80.2708 111.856 80.4142 112.649 80.48C113.629 80.568 114.356 80.8105 114.829 81.2068C115.314 81.592 115.556 82.104 115.556 82.7428C115.556 83.2603 115.407 83.7065 115.11 84.0806C114.813 84.4443 114.416 84.7194 113.921 84.9065C113.425 85.0936 112.891 85.1871 112.319 85.1871ZM117.866 84.9231V77.1932H118.989V84.9231H117.866ZM118.428 75.6899C118.174 75.6899 117.959 75.6019 117.783 75.4259C117.618 75.2499 117.536 75.0351 117.536 74.7815C117.536 74.5397 117.618 74.336 117.783 74.1705C117.959 73.9945 118.174 73.9065 118.428 73.9065C118.67 73.9065 118.879 73.9945 119.055 74.1705C119.231 74.336 119.319 74.5452 119.319 74.7982C119.319 75.0406 119.231 75.2499 119.055 75.4259C118.879 75.6019 118.67 75.6899 118.428 75.6899Z" fill="white"/>
<mask id="mask0_2_20" style="mask-type:luminance" maskUnits="userSpaceOnUse" x="43" y="72" width="77" height="14">
<path d="M120 72.6154H43.6923V85.5385H120V72.6154Z" fill="white"/>
<path d="M52.6157 84.9231L51.4595 81.7686H46.7852L45.7447 84.9231H44.5059L48.503 73.6585H49.6592L53.7719 84.9231H52.6157ZM47.1651 80.744H51.0796L49.0645 75.2769L47.1651 80.744ZM63.2357 76.9286C63.9514 76.9286 64.5458 77.1822 65.0191 77.6886C65.4929 78.184 65.7292 78.8726 65.7292 79.7532V84.9231H64.6061V80.2486C64.6061 79.4339 64.4523 78.8505 64.144 78.4979C63.8357 78.1348 63.4338 77.9532 62.9378 77.9532C62.3323 77.9532 61.8591 78.1895 61.5176 78.6634C61.1873 79.1255 60.9946 79.7588 60.9396 80.5625V84.9231H59.8164V80.2486C59.8164 79.4339 59.6623 78.8505 59.354 78.4979C59.0456 78.1348 58.6437 77.9532 58.1482 77.9532C57.4765 77.9532 56.97 78.2339 56.6287 78.7951C56.2983 79.3569 56.1332 80.1114 56.1332 81.0579V84.9231H55.01V77.1932H56.1332V78.3988C56.3864 77.9255 56.7057 77.5619 57.0911 77.3089C57.4876 77.0554 57.939 76.9286 58.4455 76.9286C59.0071 76.9286 59.4971 77.0831 59.9156 77.3914C60.334 77.6886 60.6258 78.1182 60.7909 78.6794C61.0332 78.1292 61.3635 77.6997 61.7821 77.3914C62.2006 77.0831 62.6849 76.9286 63.2357 76.9286ZM68.3317 84.9231V77.1932H69.4548V84.9231H68.3317ZM68.8929 75.6899C68.64 75.6899 68.4252 75.6019 68.2486 75.4259C68.0837 75.2499 68.0012 75.0351 68.0012 74.7815C68.0012 74.5397 68.0837 74.336 68.2486 74.1705C68.4252 73.9945 68.64 73.9065 68.8929 73.9065C69.1354 73.9065 69.3446 73.9945 69.5206 74.1705C69.6966 74.336 69.7846 74.5452 69.7846 74.7982C69.7846 75.0406 69.6966 75.2499 69.5206 75.4259C69.3446 75.6019 69.1354 75.6899 68.8929 75.6899ZM75.9384 76.9286C76.2031 76.9286 76.456 76.9674 76.6984 77.0443V78.0683C76.4671 77.9582 76.2141 77.9034 75.9384 77.9034C75.4652 77.9034 75.0246 78.0357 74.6172 78.2997C74.2098 78.5643 73.8794 78.9495 73.6264 79.456C73.384 79.9514 73.2628 80.5403 73.2628 81.2234V84.9231H72.1397V77.1932H73.2628V78.7459C73.5606 78.1729 73.9348 77.7274 74.3864 77.408C74.8486 77.0886 75.3661 76.9286 75.9384 76.9286ZM88.6818 84.9231L87.5255 81.7686H82.8517L81.8111 84.9231H80.5723L84.5692 73.6585H85.7255L89.8381 84.9231H88.6818ZM83.2314 80.744H87.1458L85.1311 75.2769L83.2314 80.744ZM94.9409 76.9286C95.6788 76.9286 96.3341 77.1052 96.9065 77.4572C97.4905 77.8099 97.9415 78.2997 98.2609 78.9274C98.5914 79.544 98.7569 80.2486 98.7569 81.0419C98.7569 81.8455 98.5914 82.5612 98.2609 83.1889C97.9311 83.8166 97.4738 84.3065 96.8905 84.6591C96.3065 85.0111 95.6461 85.1871 94.9083 85.1871C94.3575 85.1871 93.8511 85.0665 93.3889 84.824C92.9261 84.5705 92.5354 84.224 92.216 83.7834V84.9231H91.0929V72.9317H92.216V78.3495C92.5354 77.8979 92.9261 77.5508 93.3889 77.3089C93.8621 77.0554 94.3797 76.9286 94.9409 76.9286ZM94.9409 84.1631C95.4585 84.1631 95.9212 84.0314 96.3286 83.7668C96.736 83.5028 97.0554 83.1335 97.2868 82.6603C97.5181 82.1871 97.6332 81.6474 97.6332 81.0419C97.6332 80.4468 97.5181 79.9182 97.2868 79.456C97.0554 78.9828 96.736 78.6135 96.3286 78.3495C95.9212 78.0849 95.4585 77.9532 94.9409 77.9532C94.4129 77.9532 93.9391 78.0849 93.5206 78.3495C93.1132 78.6135 92.7938 78.9828 92.5631 79.456C92.3317 79.9292 92.216 80.4634 92.216 81.0579C92.216 81.6529 92.3317 82.1871 92.5631 82.6603C92.7938 83.1335 93.1132 83.5028 93.5206 83.7668C93.9391 84.0314 94.4129 84.1631 94.9409 84.1631ZM107.519 77.1932V84.9231H106.396V83.7834C106.077 84.224 105.686 84.5705 105.224 84.824C104.761 85.0665 104.255 85.1871 103.704 85.1871C102.967 85.1871 102.306 85.0111 101.722 84.6591C101.138 84.3065 100.682 83.8166 100.351 83.1889C100.021 82.5612 99.856 81.8455 99.856 81.0419C99.856 80.2486 100.015 79.544 100.335 78.9274C100.665 78.2997 101.116 77.8099 101.689 77.4572C102.273 77.1052 102.934 76.9286 103.671 76.9286C104.233 76.9286 104.745 77.0554 105.207 77.3089C105.681 77.5508 106.077 77.8979 106.396 78.3495V77.1932H107.519ZM103.671 84.1631C104.2 84.1631 104.668 84.0314 105.075 83.7668C105.494 83.5028 105.818 83.1335 106.05 82.6603C106.281 82.1871 106.396 81.6529 106.396 81.0579C106.396 80.4634 106.281 79.9292 106.05 79.456C105.818 78.9828 105.494 78.6135 105.075 78.3495C104.668 78.0849 104.2 77.9532 103.671 77.9532C103.154 77.9532 102.691 78.0849 102.284 78.3495C101.876 78.6135 101.557 78.9828 101.326 79.456C101.095 79.9182 100.979 80.4468 100.979 81.0419C100.979 81.6474 101.095 82.1871 101.326 82.6603C101.557 83.1335 101.876 83.5028 102.284 83.7668C102.691 84.0314 103.154 84.1631 103.671 84.1631ZM112.319 85.1871C111.57 85.1871 110.909 85.0277 110.337 84.7083C109.775 84.3889 109.345 83.9379 109.048 83.3539L110.056 82.8585C110.463 83.7286 111.262 84.1631 112.45 84.1631C113.023 84.1631 113.497 84.0585 113.871 83.8492C114.246 83.64 114.433 83.3157 114.433 82.8751C114.433 82.4234 114.279 82.0874 113.97 81.8677C113.673 81.6474 113.145 81.504 112.385 81.4382C111.327 81.3502 110.568 81.1132 110.105 80.728C109.654 80.3422 109.428 79.8302 109.428 79.192C109.428 78.4757 109.687 77.92 110.204 77.5237C110.722 77.1274 111.432 76.9286 112.335 76.9286C113.866 76.9286 114.906 77.5348 115.457 78.7459L114.449 79.2412C114.262 78.8006 113.987 78.4757 113.623 78.2665C113.271 78.0579 112.814 77.9532 112.252 77.9532C111.68 77.9532 111.239 78.0579 110.931 78.2665C110.634 78.4757 110.485 78.7735 110.485 79.1588C110.485 79.5219 110.645 79.8191 110.964 80.0505C111.295 80.2708 111.856 80.4142 112.649 80.48C113.629 80.568 114.356 80.8105 114.829 81.2068C115.314 81.592 115.556 82.104 115.556 82.7428C115.556 83.2603 115.407 83.7065 115.11 84.0806C114.813 84.4443 114.416 84.7194 113.921 84.9065C113.425 85.0936 112.891 85.1871 112.319 85.1871ZM117.866 84.9231V77.1932H118.989V84.9231H117.866ZM118.428 75.6899C118.174 75.6899 117.959 75.6019 117.783 75.4259C117.618 75.2499 117.536 75.0351 117.536 74.7815C117.536 74.5397 117.618 74.336 117.783 74.1705C117.959 73.9945 118.174 73.9065 118.428 73.9065C118.67 73.9065 118.879 73.9945 119.055 74.1705C119.231 74.336 119.319 74.5452 119.319 74.7982C119.319 75.0406 119.231 75.2499 119.055 75.4259C118.879 75.6019 118.67 75.6899 118.428 75.6899Z" fill="black"/>
</mask>
<g mask="url(#mask0_2_20)">
<path d="M52.6157 84.9231L52.4713 84.976L52.5083 85.0769H52.6157V84.9231ZM51.4595 81.7686L51.604 81.7157L51.567 81.6148H51.4595V81.7686ZM46.7853 81.7686V81.6148H46.674L46.6392 81.72L46.7853 81.7686ZM45.7447 84.9231V85.0769H45.856L45.8908 84.9711L45.7447 84.9231ZM44.5059 84.9231L44.3609 84.8714L44.2881 85.0769H44.5059V84.9231ZM48.503 73.6585V73.5046H48.3944L48.3581 73.6074L48.503 73.6585ZM49.6592 73.6585L49.8037 73.6055L49.7668 73.5046H49.6592V73.6585ZM53.7719 84.9231V85.0769H53.9918L53.9165 84.8702L53.7719 84.9231ZM47.1651 80.744L47.0198 80.6935L46.9488 80.8978H47.1651V80.744ZM51.0797 80.744V80.8978H51.3003L51.224 80.6911L51.0797 80.744ZM49.0646 75.2769L49.2089 75.224L49.0603 74.8209L48.9193 75.2265L49.0646 75.2769ZM52.7602 84.8702L51.604 81.7157L51.3151 81.8215L52.4713 84.976L52.7602 84.8702ZM51.4595 81.6148H46.7853V81.9225H51.4595V81.6148ZM46.6392 81.72L45.5986 84.8751L45.8908 84.9711L46.9313 81.8166L46.6392 81.72ZM45.7447 84.7692H44.5059V85.0769H45.7447V84.7692ZM44.6509 84.9748L48.648 73.7102L48.3581 73.6074L44.3609 84.8714L44.6509 84.9748ZM48.503 73.8123H49.6592V73.5046H48.503V73.8123ZM49.5147 73.7114L53.6274 84.976L53.9165 84.8702L49.8037 73.6055L49.5147 73.7114ZM53.7719 84.7692H52.6157V85.0769H53.7719V84.7692ZM47.1651 80.8978H51.0797V80.5902H47.1651V80.8978ZM51.224 80.6911L49.2089 75.224L48.9202 75.3305L50.9353 80.7975L51.224 80.6911ZM48.9193 75.2265L47.0198 80.6935L47.3105 80.7951L49.2099 75.3274L48.9193 75.2265ZM65.0191 77.6886L64.9071 77.7938L64.9083 77.7951L65.0191 77.6886ZM65.7293 84.9231V85.0769H65.8831V84.9231H65.7293ZM64.6062 84.9231H64.4523V85.0769H64.6062V84.9231ZM64.144 78.4978L64.0265 78.5975L64.0283 78.5994L64.144 78.4978ZM61.5177 78.6634L61.3929 78.5729L61.3925 78.5735L61.5177 78.6634ZM60.9396 80.5625L60.7861 80.552L60.7857 80.5575V80.5625H60.9396ZM60.9396 84.9231V85.0769H61.0934V84.9231H60.9396ZM59.8165 84.9231H59.6626V85.0769H59.8165V84.9231ZM59.354 78.4978L59.2366 78.5975L59.2382 78.5994L59.354 78.4978ZM56.6287 78.7951L56.4972 78.7151L56.4961 78.7175L56.6287 78.7951ZM56.1332 84.9231V85.0769H56.287V84.9231H56.1332ZM55.0101 84.9231H54.8562V85.0769H55.0101V84.9231ZM55.0101 77.1932V77.0394H54.8562V77.1932H55.0101ZM56.1332 77.1932H56.287V77.0394H56.1332V77.1932ZM56.1332 78.3988H55.9793L56.2688 78.4714L56.1332 78.3988ZM57.0912 77.3089L57.0083 77.1791L57.0067 77.1803L57.0912 77.3089ZM59.9156 77.3914L59.8243 77.5151L59.8265 77.5169L59.9156 77.3914ZM60.791 78.6794L60.6433 78.7231L60.7622 79.1274L60.9318 78.7415L60.791 78.6794ZM63.2357 77.0825C63.9102 77.0825 64.4634 77.3194 64.9071 77.7938L65.1317 77.5834C64.6283 77.0449 63.992 76.7748 63.2357 76.7748V77.0825ZM64.9083 77.7951C65.3471 78.2542 65.5754 78.9003 65.5754 79.7532H65.8831C65.8831 78.8443 65.6388 78.1138 65.1305 77.5822L64.9083 77.7951ZM65.5754 79.7532V84.9231H65.8831V79.7532H65.5754ZM65.7293 84.7692H64.6062V85.0769H65.7293V84.7692ZM64.76 84.9231V80.2486H64.4523V84.9231H64.76ZM64.76 80.2486C64.76 79.4215 64.6049 78.7914 64.2597 78.3969L64.0283 78.5994C64.2991 78.9089 64.4523 79.4462 64.4523 80.2486H64.76ZM64.2609 78.3982C63.9225 77.9994 63.4769 77.7994 62.9379 77.7994V78.1071C63.3908 78.1071 63.7489 78.2702 64.0265 78.5975L64.2609 78.3982ZM62.9379 77.7994C62.2856 77.7994 61.7643 78.0578 61.3929 78.5729L61.6425 78.7532C61.9539 78.3212 62.3797 78.1071 62.9379 78.1071V77.7994ZM61.3925 78.5735C61.0401 79.0671 60.8424 79.7311 60.7861 80.552L61.0931 80.5729C61.147 79.7865 61.3347 79.184 61.6431 78.7526L61.3925 78.5735ZM60.7857 80.5625V84.9231H61.0934V80.5625H60.7857ZM60.9396 84.7692H59.8165V85.0769H60.9396V84.7692ZM59.9703 84.9231V80.2486H59.6626V84.9231H59.9703ZM59.9703 80.2486C59.9703 79.4215 59.8152 78.7914 59.4697 78.3969L59.2382 78.5994C59.5094 78.9089 59.6626 79.4462 59.6626 80.2486H59.9703ZM59.4713 78.3982C59.1325 77.9994 58.6869 77.7994 58.1483 77.7994V78.1071C58.6006 78.1071 58.9589 78.2702 59.2366 78.5975L59.4713 78.3982ZM58.1483 77.7994C57.4243 77.7994 56.8672 78.1065 56.4973 78.7157L56.7601 78.8751C57.0729 78.3606 57.5288 78.1071 58.1483 78.1071V77.7994ZM56.4961 78.7175C56.1469 79.3108 55.9793 80.0954 55.9793 81.0578H56.287C56.287 80.1268 56.4498 79.4031 56.7613 78.8732L56.4961 78.7175ZM55.9793 81.0578V84.9231H56.287V81.0578H55.9793ZM56.1332 84.7692H55.0101V85.0769H56.1332V84.7692ZM55.1639 84.9231V77.1932H54.8562V84.9231H55.1639ZM55.0101 77.3471H56.1332V77.0394H55.0101V77.3471ZM55.9793 77.1932V78.3988H56.287V77.1932H55.9793ZM56.2688 78.4714C56.512 78.0166 56.815 77.6745 57.1757 77.4375L57.0067 77.1803C56.5965 77.4498 56.2609 77.8338 55.9975 78.3262L56.2688 78.4714ZM57.174 77.4382C57.5438 77.2025 57.9661 77.0825 58.4456 77.0825V76.7748C57.912 76.7748 57.4314 76.9089 57.0083 77.1791L57.174 77.4382ZM58.4456 77.0825C58.9771 77.0825 59.4344 77.2277 59.8243 77.5151L60.0069 77.2677C59.5598 76.9378 59.0372 76.7748 58.4456 76.7748V77.0825ZM59.8265 77.5169C60.2128 77.7914 60.4865 78.1895 60.6433 78.7231L60.9385 78.6363C60.7651 78.0462 60.4552 77.5858 60.0047 77.2658L59.8265 77.5169ZM60.9318 78.7415C61.1649 78.2117 61.4797 77.8049 61.8733 77.5151L61.6905 77.2677C61.2475 77.5938 60.9015 78.0468 60.6501 78.6178L60.9318 78.7415ZM61.8733 77.5151C62.2634 77.2277 62.7157 77.0825 63.2357 77.0825V76.7748C62.6542 76.7748 62.1373 76.9385 61.6905 77.2677L61.8733 77.5151ZM68.3317 84.9231H68.1779V85.0769H68.3317V84.9231ZM68.3317 77.1932V77.0394H68.1779V77.1932H68.3317ZM69.4548 77.1932H69.6086V77.0394H69.4548V77.1932ZM69.4548 84.9231V85.0769H69.6086V84.9231H69.4548ZM68.2486 75.4258L68.1366 75.5311L68.1403 75.5348L68.2486 75.4258ZM69.5206 74.1705L69.4117 74.2794L69.4154 74.2831L69.5206 74.1705ZM68.4856 84.9231V77.1932H68.1779V84.9231H68.4856ZM68.3317 77.3471H69.4548V77.0394H68.3317V77.3471ZM69.3009 77.1932V84.9231H69.6086V77.1932H69.3009ZM69.4548 84.7692H68.3317V85.0769H69.4548V84.7692ZM68.8929 75.536C68.68 75.536 68.5046 75.464 68.3576 75.3169L68.1403 75.5348C68.3459 75.7403 68.6 75.8437 68.8929 75.8437V75.536ZM68.3613 75.3206C68.224 75.1742 68.1551 74.9982 68.1551 74.7815H67.8474C67.8474 75.072 67.9434 75.3249 68.1366 75.5311L68.3613 75.3206ZM68.1551 74.7815C68.1551 74.5785 68.2228 74.4148 68.3576 74.2794L68.1403 74.0615C67.9446 74.2572 67.8474 74.5003 67.8474 74.7815H68.1551ZM68.3576 74.2794C68.5046 74.1323 68.68 74.0603 68.8929 74.0603V73.7526C68.6 73.7526 68.3459 73.856 68.1403 74.0615L68.3576 74.2794ZM68.8929 74.0603C69.0929 74.0603 69.2634 74.1311 69.4117 74.2794L69.6296 74.0615C69.4253 73.8578 69.1773 73.7526 68.8929 73.7526V74.0603ZM69.4154 74.2831C69.5588 74.4172 69.6308 74.5852 69.6308 74.7982H69.9385C69.9385 74.5046 69.8345 74.2542 69.6259 74.0585L69.4154 74.2831ZM69.6308 74.7982C69.6308 74.9982 69.56 75.1686 69.4117 75.3169L69.6296 75.5348C69.8339 75.3305 69.9385 75.0825 69.9385 74.7982H69.6308ZM69.4117 75.3169C69.2634 75.4652 69.0929 75.536 68.8929 75.536V75.8437C69.1773 75.8437 69.4253 75.7385 69.6296 75.5348L69.4117 75.3169ZM76.6985 77.0443H76.8523V76.9323L76.7453 76.8978L76.6985 77.0443ZM76.6985 78.0683L76.6326 78.2074L76.8523 78.312V78.0683H76.6985ZM73.6265 79.456L73.4886 79.3871L73.488 79.3883L73.6265 79.456ZM73.2628 84.9231V85.0769H73.4166V84.9231H73.2628ZM72.1397 84.9231H71.9859V85.0769H72.1397V84.9231ZM72.1397 77.1932V77.0394H71.9859V77.1932H72.1397ZM73.2628 77.1932H73.4166V77.0394H73.2628V77.1932ZM73.2628 78.7458H73.1089L73.3994 78.8166L73.2628 78.7458ZM74.3865 77.408L74.2985 77.2812L74.2973 77.2825L74.3865 77.408ZM75.9385 77.0825C76.1877 77.0825 76.4253 77.1188 76.6517 77.1914L76.7453 76.8978C76.4874 76.816 76.2185 76.7748 75.9385 76.7748V77.0825ZM76.5446 77.0443V78.0683H76.8523V77.0443H76.5446ZM76.7649 77.9298C76.5114 77.8092 76.2351 77.7495 75.9385 77.7495V78.0572C76.1926 78.0572 76.4234 78.1077 76.6326 78.2074L76.7649 77.9298ZM75.9385 77.7495C75.4345 77.7495 74.9656 77.8905 74.5336 78.1705L74.7009 78.4289C75.0843 78.1803 75.496 78.0572 75.9385 78.0572V77.7495ZM74.5336 78.1705C74.0997 78.4523 73.752 78.8603 73.4886 79.3871L73.7637 79.5249C74.0068 79.0388 74.32 78.6757 74.7009 78.4289L74.5336 78.1705ZM73.488 79.3883C73.2333 79.9095 73.1089 80.5225 73.1089 81.2234H73.4166C73.4166 80.5588 73.5348 79.9938 73.7643 79.5237L73.488 79.3883ZM73.1089 81.2234V84.9231H73.4166V81.2234H73.1089ZM73.2628 84.7692H72.1397V85.0769H73.2628V84.7692ZM72.2936 84.9231V77.1932H71.9859V84.9231H72.2936ZM72.1397 77.3471H73.2628V77.0394H72.1397V77.3471ZM73.1089 77.1932V78.7458H73.4166V77.1932H73.1089ZM73.3994 78.8166C73.6874 78.2622 74.0468 77.8363 74.4751 77.5335L74.2973 77.2825C73.8228 77.6178 73.4333 78.0843 73.1268 78.6751L73.3994 78.8166ZM74.4739 77.5348C74.9102 77.2332 75.3969 77.0825 75.9385 77.0825V76.7748C75.3354 76.7748 74.7877 76.944 74.2985 77.2812L74.4739 77.5348ZM88.6819 84.9231L88.5373 84.976L88.5748 85.0769H88.6819V84.9231ZM87.5256 81.7686L87.6702 81.7157L87.6333 81.6148H87.5256V81.7686ZM82.8517 81.7686V81.6148H82.7403L82.7052 81.72L82.8517 81.7686ZM81.8111 84.9231V85.0769H81.9225L81.9569 84.9711L81.8111 84.9231ZM80.5723 84.9231L80.4271 84.8714L80.3545 85.0769H80.5723V84.9231ZM84.5693 73.6585V73.5046H84.4603L84.424 73.6074L84.5693 73.6585ZM85.7256 73.6585L85.8702 73.6055L85.8333 73.5046H85.7256V73.6585ZM89.8382 84.9231V85.0769H90.0579L89.9828 84.8702L89.8382 84.9231ZM83.2314 80.744L83.0862 80.6935L83.0148 80.8978H83.2314V80.744ZM87.1459 80.744V80.8978H87.3668L87.2905 80.6911L87.1459 80.744ZM85.1311 75.2769L85.2751 75.224L85.1268 74.8209L84.9853 75.2265L85.1311 75.2769ZM88.8265 84.8702L87.6702 81.7157L87.3816 81.8215L88.5373 84.976L88.8265 84.8702ZM87.5256 81.6148H82.8517V81.9225H87.5256V81.6148ZM82.7052 81.72L81.6646 84.8751L81.9569 84.9711L82.9976 81.8166L82.7052 81.72ZM81.8111 84.7692H80.5723V85.0769H81.8111V84.7692ZM80.7169 84.9748L84.7145 73.7102L84.424 73.6074L80.4271 84.8714L80.7169 84.9748ZM84.5693 73.8123H85.7256V73.5046H84.5693V73.8123ZM85.5809 73.7114L89.6936 84.976L89.9828 84.8702L85.8702 73.6055L85.5809 73.7114ZM89.8382 84.7692H88.6819V85.0769H89.8382V84.7692ZM83.2314 80.8978H87.1459V80.5902H83.2314V80.8978ZM87.2905 80.6911L85.2751 75.224L84.9865 75.3305L87.0013 80.7975L87.2905 80.6911ZM84.9853 75.2265L83.0862 80.6935L83.3766 80.7951L85.2763 75.3274L84.9853 75.2265ZM96.9065 77.4572L96.8259 77.5883L96.8271 77.5889L96.9065 77.4572ZM98.2609 78.9274L98.1237 78.9969L98.1256 79L98.2609 78.9274ZM93.3889 84.824L93.3145 84.9588L93.3176 84.96L93.3889 84.824ZM92.216 83.7834L92.3403 83.6929L92.0622 83.3089V83.7834H92.216ZM92.216 84.9231V85.0769H92.3699V84.9231H92.216ZM91.0929 84.9231H90.9391V85.0769H91.0929V84.9231ZM91.0929 72.9317V72.7778H90.9391V72.9317H91.0929ZM92.216 72.9317H92.3699V72.7778H92.216V72.9317ZM92.216 78.3495H92.0622V78.8332L92.3416 78.4382L92.216 78.3495ZM93.3889 77.3089L93.4603 77.4449L93.4609 77.4443L93.3889 77.3089ZM97.2868 79.456L97.1483 79.5237L97.1489 79.5249L97.2868 79.456ZM93.5206 78.3495L93.4388 78.2191L93.4369 78.2203L93.5206 78.3495ZM93.5206 83.7668L93.4369 83.896L93.4388 83.8972L93.5206 83.7668ZM94.9409 77.0825C95.6536 77.0825 96.28 77.2523 96.8259 77.5883L96.9871 77.3262C96.3883 76.9575 95.7046 76.7748 94.9409 76.7748V77.0825ZM96.8271 77.5889C97.3852 77.9262 97.8166 78.3945 98.1237 78.9969L98.3982 78.8578C98.0665 78.2055 97.5951 77.6935 96.9865 77.3255L96.8271 77.5889ZM98.1256 79C98.4425 79.5914 98.6031 80.2708 98.6031 81.0418H98.9108C98.9108 80.2271 98.7403 79.4966 98.3969 78.8548L98.1256 79ZM98.6031 81.0418C98.6031 81.824 98.4425 82.5145 98.1249 83.1169L98.3976 83.2603C98.7409 82.608 98.9108 81.8671 98.9108 81.0418H98.6031ZM98.1249 83.1169C97.8074 83.7212 97.3693 84.1895 96.8105 84.5274L96.9699 84.7908C97.5785 84.4228 98.0542 83.912 98.3976 83.2603L98.1249 83.1169ZM96.8105 84.5274C96.2529 84.864 95.6203 85.0332 94.9083 85.0332V85.3409C95.6714 85.3409 96.36 85.1588 96.9699 84.7908L96.8105 84.5274ZM94.9083 85.0332C94.3809 85.0332 93.8991 84.9175 93.4603 84.688L93.3176 84.96C93.8031 85.2148 94.3342 85.3409 94.9083 85.3409V85.0332ZM93.4628 84.6892C93.0209 84.4468 92.6468 84.1157 92.3403 83.6929L92.0911 83.8738C92.4234 84.3323 92.8314 84.6942 93.3145 84.9588L93.4628 84.6892ZM92.0622 83.7834V84.9231H92.3699V83.7834H92.0622ZM92.216 84.7692H91.0929V85.0769H92.216V84.7692ZM91.2468 84.9231V72.9317H90.9391V84.9231H91.2468ZM91.0929 73.0855H92.216V72.7778H91.0929V73.0855ZM92.0622 72.9317V78.3495H92.3699V72.9317H92.0622ZM92.3416 78.4382C92.6474 78.0055 93.0203 77.6751 93.4603 77.4449L93.3176 77.1723C92.832 77.4265 92.4228 77.7902 92.0905 78.2603L92.3416 78.4382ZM93.4609 77.4443C93.9114 77.2037 94.4037 77.0825 94.9409 77.0825V76.7748C94.3557 76.7748 93.8129 76.9071 93.3163 77.1729L93.4609 77.4443ZM94.9409 84.3169C95.4862 84.3169 95.9785 84.1772 96.4123 83.896L96.2449 83.6375C95.864 83.8849 95.4314 84.0092 94.9409 84.0092V84.3169ZM96.4123 83.896C96.8449 83.6154 97.1822 83.224 97.4246 82.728L97.1483 82.5926C96.9286 83.0431 96.6271 83.3902 96.2449 83.6375L96.4123 83.896ZM97.4246 82.728C97.6677 82.2302 97.7871 81.6671 97.7871 81.0418H97.4794C97.4794 81.6271 97.368 82.1434 97.1483 82.5926L97.4246 82.728ZM97.7871 81.0418C97.7871 80.4265 97.6677 79.8738 97.424 79.3871L97.1489 79.5249C97.368 79.9631 97.4794 80.4671 97.4794 81.0418H97.7871ZM97.4246 79.3883C97.1822 78.8923 96.8449 78.5009 96.4123 78.2203L96.2449 78.4782C96.6271 78.7262 96.9286 79.0726 97.1483 79.5237L97.4246 79.3883ZM96.4123 78.2203C95.9785 77.9385 95.4862 77.7994 94.9409 77.7994V78.1071C95.4314 78.1071 95.864 78.2314 96.2449 78.4782L96.4123 78.2203ZM94.9409 77.7994C94.3859 77.7994 93.8831 77.9385 93.4388 78.2191L93.6031 78.4794C93.9951 78.232 94.44 78.1071 94.9409 78.1071V77.7994ZM93.4369 78.2203C93.0043 78.5009 92.6671 78.8923 92.4246 79.3883L92.7009 79.5237C92.9213 79.0726 93.2228 78.7262 93.6043 78.4782L93.4369 78.2203ZM92.4246 79.3883C92.1816 79.8855 92.0622 80.4431 92.0622 81.0578H92.3699C92.3699 80.4837 92.4813 79.9735 92.7009 79.5237L92.4246 79.3883ZM92.0622 81.0578C92.0622 81.6732 92.1816 82.2308 92.4246 82.728L92.7009 82.5926C92.4813 82.1428 92.3699 81.6326 92.3699 81.0578H92.0622ZM92.4246 82.728C92.6671 83.224 93.0043 83.6154 93.4369 83.896L93.6043 83.6375C93.2228 83.3902 92.9213 83.0431 92.7009 82.5926L92.4246 82.728ZM93.4388 83.8972C93.8831 84.1778 94.3859 84.3169 94.9409 84.3169V84.0092C94.44 84.0092 93.9951 83.8843 93.6031 83.6369L93.4388 83.8972ZM107.519 77.1932H107.673V77.0394H107.519V77.1932ZM107.519 84.9231V85.0769H107.673V84.9231H107.519ZM106.396 84.9231H106.242V85.0769H106.396V84.9231ZM106.396 83.7834H106.55V83.3089L106.272 83.6929L106.396 83.7834ZM105.224 84.824L105.295 84.96L105.298 84.9588L105.224 84.824ZM100.335 78.9274L100.199 78.856L100.198 78.8566L100.335 78.9274ZM101.689 77.4572L101.61 77.3255L101.609 77.3262L101.689 77.4572ZM105.207 77.3089L105.134 77.4437L105.137 77.4455L105.207 77.3089ZM106.396 78.3495L106.271 78.4382L106.55 78.8332V78.3495H106.396ZM106.396 77.1932V77.0394H106.242V77.1932H106.396ZM105.075 83.7668L104.993 83.6369L104.991 83.6375L105.075 83.7668ZM105.075 78.3495L104.991 78.4782L104.993 78.4794L105.075 78.3495ZM101.326 79.456L101.463 79.5249L101.464 79.5237L101.326 79.456ZM107.366 77.1932V84.9231H107.673V77.1932H107.366ZM107.519 84.7692H106.396V85.0769H107.519V84.7692ZM106.55 84.9231V83.7834H106.242V84.9231H106.55ZM106.272 83.6929C105.966 84.1157 105.592 84.4468 105.15 84.6892L105.298 84.9588C105.781 84.6942 106.189 84.3323 106.521 83.8738L106.272 83.6929ZM105.153 84.688C104.713 84.9175 104.231 85.0332 103.704 85.0332V85.3409C104.278 85.3409 104.809 85.2148 105.295 84.96L105.153 84.688ZM103.704 85.0332C102.992 85.0332 102.359 84.864 101.802 84.5274L101.642 84.7908C102.252 85.1588 102.941 85.3409 103.704 85.3409V85.0332ZM101.802 84.5274C101.243 84.1895 100.806 83.7212 100.487 83.1169L100.215 83.2603C100.558 83.912 101.034 84.4228 101.642 84.7908L101.802 84.5274ZM100.487 83.1169C100.17 82.5145 100.01 81.824 100.01 81.0418H99.7022C99.7022 81.8671 99.872 82.608 100.215 83.2603L100.487 83.1169ZM100.01 81.0418C100.01 80.2702 100.165 79.5902 100.471 78.9982L100.198 78.8566C99.8659 79.4978 99.7022 80.2277 99.7022 81.0418H100.01ZM100.471 78.9994C100.789 78.3945 101.222 77.9255 101.77 77.5883L101.609 77.3262C101.011 77.6942 100.541 78.2049 100.199 78.856L100.471 78.9994ZM101.769 77.5889C102.326 77.2523 102.959 77.0825 103.671 77.0825V76.7748C102.908 76.7748 102.219 76.9575 101.61 77.3255L101.769 77.5889ZM103.671 77.0825C104.209 77.0825 104.695 77.2037 105.134 77.4437L105.281 77.1735C104.794 76.9071 104.257 76.7748 103.671 76.7748V77.0825ZM105.137 77.4455C105.588 77.6763 105.966 78.0062 106.271 78.4382L106.522 78.2603C106.189 77.7895 105.774 77.4258 105.278 77.1717L105.137 77.4455ZM106.55 78.3495V77.1932H106.242V78.3495H106.55ZM106.396 77.3471H107.519V77.0394H106.396V77.3471ZM103.671 84.3169C104.226 84.3169 104.724 84.1778 105.159 83.896L104.991 83.6375C104.611 83.8843 104.173 84.0092 103.671 84.0092V84.3169ZM105.158 83.8972C105.601 83.6166 105.945 83.2252 106.188 82.728L105.911 82.5926C105.692 83.0425 105.386 83.3889 104.993 83.6369L105.158 83.8972ZM106.188 82.728C106.431 82.2308 106.55 81.6732 106.55 81.0578H106.242C106.242 81.6326 106.131 82.1428 105.911 82.5926L106.188 82.728ZM106.55 81.0578C106.55 80.4431 106.431 79.8855 106.188 79.3883L105.911 79.5237C106.131 79.9735 106.242 80.4837 106.242 81.0578H106.55ZM106.188 79.3883C105.945 78.8911 105.601 78.4997 105.158 78.2191L104.993 78.4794C105.386 78.7274 105.692 79.0738 105.911 79.5237L106.188 79.3883ZM105.159 78.2203C104.724 77.9385 104.226 77.7994 103.671 77.7994V78.1071C104.173 78.1071 104.611 78.232 104.991 78.4782L105.159 78.2203ZM103.671 77.7994C103.126 77.7994 102.634 77.9385 102.2 78.2203L102.367 78.4782C102.748 78.2314 103.182 78.1071 103.671 78.1071V77.7994ZM102.2 78.2203C101.767 78.5009 101.43 78.8923 101.188 79.3883L101.464 79.5237C101.684 79.0726 101.985 78.7262 102.367 78.4782L102.2 78.2203ZM101.188 79.3871C100.945 79.8738 100.825 80.4265 100.825 81.0418H101.133C101.133 80.4671 101.244 79.9631 101.463 79.5249L101.188 79.3871ZM100.825 81.0418C100.825 81.6671 100.945 82.2302 101.188 82.728L101.464 82.5926C101.244 82.1434 101.133 81.6271 101.133 81.0418H100.825ZM101.188 82.728C101.43 83.224 101.767 83.6154 102.2 83.896L102.367 83.6375C101.985 83.3902 101.684 83.0431 101.464 82.5926L101.188 82.728ZM102.2 83.896C102.634 84.1772 103.126 84.3169 103.671 84.3169V84.0092C103.182 84.0092 102.748 83.8849 102.367 83.6375L102.2 83.896ZM110.337 84.7083L110.26 84.8418L110.262 84.8425L110.337 84.7083ZM109.048 83.3538L108.98 83.216L108.841 83.2849L108.911 83.424L109.048 83.3538ZM110.056 82.8585L110.195 82.7932L110.129 82.6511L109.988 82.7206L110.056 82.8585ZM113.97 81.8677L113.879 81.9914L113.881 81.9926L113.97 81.8677ZM112.385 81.4382L112.398 81.2849H112.398L112.385 81.4382ZM110.105 80.728L110.006 80.8449L110.007 80.8462L110.105 80.728ZM115.457 78.7458L115.525 78.8837L115.658 78.8178L115.597 78.6818L115.457 78.7458ZM114.449 79.2412L114.308 79.3015L114.371 79.4511L114.517 79.3791L114.449 79.2412ZM113.623 78.2665L113.545 78.3988L113.546 78.4L113.623 78.2665ZM110.931 78.2665L110.845 78.1397L110.842 78.1409L110.931 78.2665ZM110.964 80.0505L110.874 80.1754L110.879 80.1785L110.964 80.0505ZM112.649 80.48L112.663 80.3268H112.662L112.649 80.48ZM114.829 81.2068L114.73 81.3249L114.734 81.3274L114.829 81.2068ZM115.11 84.0806L115.229 84.1778L115.23 84.1766L115.11 84.0806ZM112.319 85.0332C111.592 85.0332 110.958 84.8788 110.412 84.5742L110.262 84.8425C110.86 85.1766 111.547 85.3409 112.319 85.3409V85.0332ZM110.412 84.5748C109.878 84.2702 109.469 83.8412 109.185 83.2843L108.911 83.424C109.222 84.0338 109.673 84.5077 110.26 84.8418L110.412 84.5748ZM109.116 83.4923L110.124 82.9963L109.988 82.7206L108.98 83.216L109.116 83.4923ZM109.916 82.9237C110.133 83.3865 110.457 83.7378 110.886 83.9723C111.314 84.2049 111.838 84.3169 112.45 84.3169V84.0092C111.874 84.0092 111.404 83.904 111.034 83.7022C110.665 83.5009 110.386 83.2 110.195 82.7932L109.916 82.9237ZM112.45 84.3169C113.041 84.3169 113.543 84.2092 113.946 83.984L113.796 83.7151C113.451 83.9077 113.006 84.0092 112.45 84.0092V84.3169ZM113.946 83.984C114.154 83.8677 114.316 83.7157 114.426 83.5255C114.535 83.336 114.586 83.1175 114.586 82.8751H114.279C114.279 83.0732 114.237 83.2369 114.159 83.3723C114.081 83.5071 113.962 83.6222 113.796 83.7151L113.946 83.984ZM114.586 82.8751C114.586 82.3846 114.417 81.9969 114.06 81.7422L113.881 81.9926C114.141 82.1785 114.279 82.4622 114.279 82.8751H114.586ZM114.062 81.744C113.728 81.4966 113.162 81.3514 112.398 81.2849L112.371 81.5914C113.127 81.6572 113.618 81.7988 113.879 81.9914L114.062 81.744ZM112.398 81.2849C111.351 81.1975 110.63 80.9643 110.204 80.6098L110.007 80.8462C110.506 81.2622 111.305 81.5022 112.372 81.5914L112.398 81.2849ZM110.205 80.6105C109.791 80.2572 109.582 79.7889 109.582 79.192H109.274C109.274 79.8714 109.517 80.4277 110.006 80.8449L110.205 80.6105ZM109.582 79.192C109.582 78.5182 109.823 78.0098 110.298 77.6455L110.111 77.4012C109.551 77.8302 109.274 78.4332 109.274 79.192H109.582ZM110.298 77.6455C110.78 77.2763 111.453 77.0825 112.335 77.0825V76.7748C111.411 76.7748 110.664 76.9778 110.111 77.4012L110.298 77.6455ZM112.335 77.0825C113.081 77.0825 113.695 77.2302 114.186 77.5163C114.676 77.8012 115.053 78.2295 115.317 78.8092L115.597 78.6818C115.31 78.0505 114.892 77.5705 114.341 77.2498C113.791 76.9305 113.121 76.7748 112.335 76.7748V77.0825ZM115.389 78.608L114.382 79.1034L114.517 79.3791L115.525 78.8837L115.389 78.608ZM114.591 79.1809C114.393 78.7145 114.097 78.3618 113.7 78.1335L113.546 78.4C113.877 78.5902 114.132 78.8874 114.308 79.3015L114.591 79.1809ZM113.702 78.1348C113.319 77.9071 112.832 77.7994 112.252 77.7994V78.1071C112.796 78.1071 113.223 78.208 113.545 78.3988L113.702 78.1348ZM112.252 77.7994C111.665 77.7994 111.189 77.9058 110.845 78.1397L111.017 78.3938C111.29 78.2092 111.695 78.1071 112.252 78.1071V77.7994ZM110.842 78.1409C110.502 78.3809 110.331 78.7268 110.331 79.1588H110.639C110.639 78.8197 110.766 78.5711 111.02 78.3926L110.842 78.1409ZM110.331 79.1588C110.331 79.576 110.519 79.9182 110.874 80.1754L111.054 79.9262C110.771 79.7206 110.639 79.4683 110.639 79.1588H110.331ZM110.879 80.1785C111.244 80.4215 111.839 80.5668 112.636 80.6332L112.662 80.3268C111.874 80.2609 111.346 80.12 111.049 79.9225L110.879 80.1785ZM112.635 80.6332C113.601 80.72 114.292 80.9569 114.73 81.3249L114.928 81.0886C114.42 80.6634 113.657 80.416 112.663 80.3268L112.635 80.6332ZM114.734 81.3274C115.18 81.6825 115.402 82.1495 115.402 82.7428H115.71C115.71 82.0591 115.447 81.5022 114.925 81.0862L114.734 81.3274ZM115.402 82.7428C115.402 83.2289 115.263 83.64 114.99 83.9852L115.23 84.1766C115.551 83.7723 115.71 83.2923 115.71 82.7428H115.402ZM114.991 83.9834C114.713 84.3231 114.34 84.584 113.866 84.7625L113.975 85.0505C114.492 84.8548 114.913 84.5649 115.229 84.1778L114.991 83.9834ZM113.866 84.7625C113.39 84.9428 112.874 85.0332 112.319 85.0332V85.3409C112.908 85.3409 113.461 85.2449 113.975 85.0505L113.866 84.7625ZM117.866 84.9231H117.712V85.0769H117.866V84.9231ZM117.866 77.1932V77.0394H117.712V77.1932H117.866ZM118.989 77.1932H119.143V77.0394H118.989V77.1932ZM118.989 84.9231V85.0769H119.143V84.9231H118.989ZM117.783 75.4258L117.671 75.5311L117.674 75.5348L117.783 75.4258ZM119.055 74.1705L118.946 74.2794L118.95 74.2831L119.055 74.1705ZM118.02 84.9231V77.1932H117.712V84.9231H118.02ZM117.866 77.3471H118.989V77.0394H117.866V77.3471ZM118.835 77.1932V84.9231H119.143V77.1932H118.835ZM118.989 84.7692H117.866V85.0769H118.989V84.7692ZM118.428 75.536C118.214 75.536 118.039 75.464 117.892 75.3169L117.674 75.5348C117.88 75.7403 118.134 75.8437 118.428 75.8437V75.536ZM117.896 75.3206C117.759 75.1742 117.69 74.9982 117.69 74.7815H117.382C117.382 75.072 117.478 75.3249 117.671 75.5311L117.896 75.3206ZM117.69 74.7815C117.69 74.5785 117.757 74.4148 117.892 74.2794L117.674 74.0615C117.479 74.2572 117.382 74.5003 117.382 74.7815H117.69ZM117.892 74.2794C118.039 74.1323 118.214 74.0603 118.428 74.0603V73.7526C118.134 73.7526 117.88 73.856 117.674 74.0615L117.892 74.2794ZM118.428 74.0603C118.628 74.0603 118.798 74.1311 118.946 74.2794L119.164 74.0615C118.96 73.8578 118.712 73.7526 118.428 73.7526V74.0603ZM118.95 74.2831C119.094 74.4172 119.166 74.5852 119.166 74.7982H119.473C119.473 74.5046 119.369 74.2542 119.161 74.0585L118.95 74.2831ZM119.166 74.7982C119.166 74.9982 119.095 75.1686 118.946 75.3169L119.164 75.5348C119.368 75.3305 119.473 75.0825 119.473 74.7982H119.166ZM118.946 75.3169C118.798 75.4652 118.628 75.536 118.428 75.536V75.8437C118.712 75.8437 118.96 75.7385 119.164 75.5348L118.946 75.3169Z" fill="white"/>
</g>
<path d="M47.1923 96H45.1206V89.2868H47.2841C47.9353 89.2868 48.4925 89.4209 48.9559 89.6898C49.4191 89.9563 49.7743 90.3403 50.0212 90.8406C50.2681 91.3385 50.3916 91.9354 50.3916 92.6302C50.3916 93.3298 50.267 93.9317 50.0179 94.4363C49.7688 94.9391 49.406 95.3255 48.9297 95.5969C48.4532 95.8658 47.8741 96 47.1923 96ZM45.9335 95.2788H47.1399C47.6949 95.2788 48.1549 95.1717 48.5199 94.9575C48.8849 94.7434 49.1569 94.4388 49.3361 94.0431C49.5153 93.6474 49.6049 93.1766 49.6049 92.6302C49.6049 92.088 49.5164 91.6215 49.3394 91.2308C49.1623 90.8369 48.898 90.5354 48.5461 90.3255C48.1943 90.1139 47.7561 90.008 47.2316 90.008H45.9335V95.2788ZM53.7613 96.1046C53.2762 96.1046 52.8577 95.9975 52.5059 95.7834C52.1562 95.5674 51.8863 95.2658 51.6962 94.8788C51.5083 94.4898 51.4143 94.0375 51.4143 93.5219C51.4143 93.0062 51.5083 92.5514 51.6962 92.1582C51.8863 91.7625 52.1508 91.4548 52.4895 91.2339C52.8304 91.0111 53.2281 90.8997 53.6827 90.8997C53.9449 90.8997 54.2039 90.9434 54.4596 91.0308C54.7153 91.1182 54.948 91.2603 55.1578 91.4566C55.3676 91.6511 55.5348 91.9089 55.6593 92.2302C55.7839 92.5514 55.8461 92.9471 55.8461 93.4172V93.7446H51.965V93.0763H55.0594C55.0594 92.792 55.0026 92.5385 54.889 92.3157C54.7775 92.0929 54.618 91.9169 54.4104 91.7877C54.205 91.6591 53.9624 91.5945 53.6827 91.5945C53.3746 91.5945 53.1079 91.6708 52.8829 91.824C52.6599 91.9748 52.4884 92.1711 52.3682 92.4142C52.2481 92.6566 52.1879 92.9163 52.1879 93.1939V93.64C52.1879 94.0203 52.2535 94.3422 52.3846 94.6068C52.5179 94.8689 52.7026 95.0689 52.9386 95.2068C53.1746 95.3422 53.4489 95.4098 53.7613 95.4098C53.9646 95.4098 54.1482 95.3815 54.3121 95.3249C54.4781 95.2658 54.6213 95.1785 54.7415 95.0628C54.8617 94.9446 54.9545 94.7982 55.0201 94.6234L55.7675 94.8332C55.6888 95.0868 55.5566 95.3095 55.3708 95.5015C55.1851 95.6917 54.9556 95.8406 54.6825 95.9477C54.4093 96.0523 54.1023 96.1046 53.7613 96.1046ZM60.9868 90.9649L59.1249 96H58.3382L56.4764 90.9649H57.3155L58.7053 94.9772H58.7578L60.1477 90.9649H60.9868ZM63.9385 96.1046C63.4535 96.1046 63.0351 95.9975 62.6831 95.7834C62.3335 95.5674 62.0634 95.2658 61.8732 94.8788C61.6855 94.4898 61.5914 94.0375 61.5914 93.5219C61.5914 93.0062 61.6855 92.5514 61.8732 92.1582C62.0634 91.7625 62.328 91.4548 62.6671 91.2339C63.008 91.0111 63.4055 90.8997 63.8597 90.8997C64.1225 90.8997 64.3809 90.9434 64.6369 91.0308C64.8923 91.1182 65.1255 91.2603 65.3348 91.4566C65.5446 91.6511 65.712 91.9089 65.8363 92.2302C65.9612 92.5514 66.0234 92.9471 66.0234 93.4172V93.7446H62.1421V93.0763H65.2369C65.2369 92.792 65.1797 92.5385 65.0665 92.3157C64.9551 92.0929 64.7951 91.9169 64.5877 91.7877C64.3821 91.6591 64.1397 91.5945 63.8597 91.5945C63.552 91.5945 63.2855 91.6708 63.0603 91.824C62.8375 91.9748 62.6658 92.1711 62.5452 92.4142C62.4252 92.6566 62.3649 92.9163 62.3649 93.1939V93.64C62.3649 94.0203 62.4308 94.3422 62.5618 94.6068C62.6954 94.8689 62.88 95.0689 63.1157 95.2068C63.352 95.3422 63.6258 95.4098 63.9385 95.4098C64.1421 95.4098 64.3255 95.3815 64.4892 95.3249C64.6554 95.2658 64.7988 95.1785 64.9188 95.0628C65.0388 94.9446 65.1317 94.7982 65.1975 94.6234L65.9446 94.8332C65.8658 95.0868 65.7341 95.3095 65.5483 95.5015C65.3625 95.6917 65.1329 95.8406 64.8597 95.9477C64.5865 96.0523 64.2794 96.1046 63.9385 96.1046ZM67.9735 89.2868V96H67.2V89.2868H67.9735ZM71.4363 96.1046C70.9815 96.1046 70.5828 95.9969 70.24 95.7803C69.8991 95.5643 69.632 95.2615 69.44 94.8726C69.2498 94.4837 69.1545 94.0289 69.1545 93.5089C69.1545 92.984 69.2498 92.5262 69.44 92.1354C69.632 91.744 69.8991 91.4406 70.24 91.224C70.5828 91.0074 70.9815 90.8997 71.4363 90.8997C71.8905 90.8997 72.2886 91.0074 72.6295 91.224C72.9723 91.4406 73.2388 91.744 73.4289 92.1354C73.6215 92.5262 73.7175 92.984 73.7175 93.5089C73.7175 94.0289 73.6215 94.4837 73.4289 94.8726C73.2388 95.2615 72.9723 95.5643 72.6295 95.7803C72.2886 95.9969 71.8905 96.1046 71.4363 96.1046ZM71.4363 95.4098C71.7815 95.4098 72.0658 95.3212 72.2886 95.1446C72.5114 94.9674 72.6763 94.7348 72.7834 94.4462C72.8905 94.1575 72.944 93.8455 72.944 93.5089C72.944 93.1723 72.8905 92.8585 72.7834 92.568C72.6763 92.2775 72.5114 92.0425 72.2886 91.8634C72.0658 91.6843 71.7815 91.5945 71.4363 91.5945C71.0911 91.5945 70.8068 91.6843 70.584 91.8634C70.3612 92.0425 70.1963 92.2775 70.0892 92.568C69.9821 92.8585 69.9286 93.1723 69.9286 93.5089C69.9286 93.8455 69.9821 94.1575 70.0892 94.4462C70.1963 94.7348 70.3612 94.9674 70.584 95.1446C70.8068 95.3212 71.0911 95.4098 71.4363 95.4098ZM74.8985 97.888V90.9649H75.6461V91.7649H75.7378C75.7945 91.6775 75.8732 91.5662 75.9735 91.4308C76.0763 91.2929 76.2228 91.1705 76.4129 91.0634C76.6055 90.9538 76.8652 90.8997 77.1932 90.8997C77.6172 90.8997 77.9908 91.0055 78.3145 91.2172C78.6375 91.4295 78.8898 91.7298 79.0714 92.1188C79.2529 92.5077 79.3434 92.9668 79.3434 93.4954C79.3434 94.0289 79.2529 94.4911 79.0714 94.8825C78.8898 95.2714 78.6388 95.5729 78.3175 95.7871C77.9963 95.9988 77.6258 96.1046 77.2061 96.1046C76.8831 96.1046 76.624 96.0511 76.4295 95.944C76.2351 95.8351 76.0849 95.7114 75.9803 95.5742C75.8751 95.4338 75.7945 95.3182 75.7378 95.2265H75.672V97.888H74.8985ZM75.6591 93.4825C75.6591 93.8628 75.7145 94.1982 75.8265 94.4886C75.9378 94.7772 76.1003 95.0037 76.3145 95.1674C76.5286 95.3292 76.7908 95.4098 77.1015 95.4098C77.4246 95.4098 77.6948 95.3249 77.9108 95.1545C78.1292 94.9815 78.2935 94.7502 78.4025 94.4591C78.5138 94.1668 78.5698 93.8406 78.5698 93.4825C78.5698 93.1286 78.5151 92.8092 78.4061 92.5255C78.2991 92.2388 78.136 92.0129 77.9175 91.8468C77.7009 91.6788 77.4289 91.5945 77.1015 91.5945C76.7865 91.5945 76.5225 91.6745 76.3083 91.8338C76.0941 91.9908 75.9323 92.2117 75.8228 92.496C75.7138 92.7778 75.6591 93.1065 75.6591 93.4825ZM82.6345 96.1046C82.1495 96.1046 81.7311 95.9975 81.3791 95.7834C81.0295 95.5674 80.7594 95.2658 80.5692 94.8788C80.3815 94.4898 80.2874 94.0375 80.2874 93.5219C80.2874 93.0062 80.3815 92.5514 80.5692 92.1582C80.7594 91.7625 81.024 91.4548 81.3625 91.2339C81.7034 91.0111 82.1015 90.8997 82.5557 90.8997C82.8178 90.8997 83.0769 90.9434 83.3329 91.0308C83.5883 91.1182 83.8209 91.2603 84.0308 91.4566C84.2406 91.6511 84.408 91.9089 84.5323 92.2302C84.6572 92.5514 84.7194 92.9471 84.7194 93.4172V93.7446H80.8381V93.0763H83.9329C83.9329 92.792 83.8757 92.5385 83.7625 92.3157C83.6505 92.0929 83.4911 91.9169 83.2837 91.7877C83.0781 91.6591 82.8357 91.5945 82.5557 91.5945C82.248 91.5945 81.9809 91.6708 81.7563 91.824C81.5329 91.9748 81.3618 92.1711 81.2412 92.4142C81.1212 92.6566 81.0609 92.9163 81.0609 93.1939V93.64C81.0609 94.0203 81.1268 94.3422 81.2578 94.6068C81.3914 94.8689 81.576 95.0689 81.8117 95.2068C82.048 95.3422 82.3218 95.4098 82.6345 95.4098C82.8375 95.4098 83.0215 95.3815 83.1852 95.3249C83.3514 95.2658 83.4948 95.1785 83.6148 95.0628C83.7348 94.9446 83.8277 94.7982 83.8935 94.6234L84.6406 94.8332C84.5618 95.0868 84.4295 95.3095 84.2443 95.5015C84.0585 95.6917 83.8289 95.8406 83.5557 95.9477C83.2825 96.0523 82.9754 96.1046 82.6345 96.1046ZM85.896 96V90.9649H86.6437V91.7255H86.696C86.7877 91.4763 86.9538 91.2745 87.1945 91.1194C87.4345 90.9637 87.7058 90.8862 88.0074 90.8862C88.064 90.8862 88.1348 90.8874 88.2203 90.8898C88.3052 90.8917 88.3698 90.8954 88.4135 90.8997V91.6862C88.3877 91.6794 88.3274 91.6695 88.2332 91.6566C88.1415 91.6412 88.0443 91.6338 87.9415 91.6338C87.6966 91.6338 87.4781 91.6849 87.2861 91.7877C87.096 91.8886 86.9452 92.0283 86.8338 92.2074C86.7243 92.3846 86.6695 92.5865 86.6695 92.8135V96H85.896Z" fill="#016094"/>
<mask id="mask1_2_20" style="mask-type:luminance" maskUnits="userSpaceOnUse" x="44" y="88" width="45" height="11">
<path d="M88.6154 88.6154H44.9231V98.4615H88.6154V88.6154Z" fill="white"/>
<path d="M47.1923 96H45.1206V89.2868H47.2841C47.9353 89.2868 48.4925 89.4209 48.9559 89.6898C49.4191 89.9563 49.7743 90.3403 50.0212 90.8406C50.2681 91.3385 50.3916 91.9354 50.3916 92.6302C50.3916 93.3298 50.267 93.9317 50.0179 94.4363C49.7688 94.9391 49.406 95.3255 48.9297 95.5969C48.4532 95.8658 47.8741 96 47.1923 96ZM45.9335 95.2788H47.1399C47.6949 95.2788 48.1549 95.1717 48.5199 94.9575C48.8849 94.7434 49.1569 94.4388 49.3361 94.0431C49.5153 93.6474 49.6049 93.1766 49.6049 92.6302C49.6049 92.088 49.5164 91.6215 49.3394 91.2308C49.1623 90.8369 48.898 90.5354 48.5461 90.3255C48.1943 90.1139 47.7561 90.008 47.2316 90.008H45.9335V95.2788ZM53.7613 96.1046C53.2762 96.1046 52.8577 95.9975 52.5059 95.7834C52.1562 95.5674 51.8863 95.2658 51.6962 94.8788C51.5083 94.4898 51.4143 94.0375 51.4143 93.5219C51.4143 93.0062 51.5083 92.5514 51.6962 92.1582C51.8863 91.7625 52.1508 91.4548 52.4895 91.2339C52.8304 91.0111 53.2281 90.8997 53.6827 90.8997C53.9449 90.8997 54.2039 90.9434 54.4596 91.0308C54.7153 91.1182 54.948 91.2603 55.1578 91.4566C55.3676 91.6511 55.5348 91.9089 55.6593 92.2302C55.7839 92.5514 55.8461 92.9471 55.8461 93.4172V93.7446H51.965V93.0763H55.0594C55.0594 92.792 55.0026 92.5385 54.889 92.3157C54.7775 92.0929 54.618 91.9169 54.4104 91.7877C54.205 91.6591 53.9624 91.5945 53.6827 91.5945C53.3746 91.5945 53.1079 91.6708 52.8829 91.824C52.6599 91.9748 52.4884 92.1711 52.3682 92.4142C52.2481 92.6566 52.1879 92.9163 52.1879 93.1939V93.64C52.1879 94.0203 52.2535 94.3422 52.3846 94.6068C52.5179 94.8689 52.7026 95.0689 52.9386 95.2068C53.1746 95.3422 53.4489 95.4098 53.7613 95.4098C53.9646 95.4098 54.1482 95.3815 54.3121 95.3249C54.4781 95.2658 54.6213 95.1785 54.7415 95.0628C54.8617 94.9446 54.9545 94.7982 55.0201 94.6234L55.7675 94.8332C55.6888 95.0868 55.5566 95.3095 55.3708 95.5015C55.1851 95.6917 54.9556 95.8406 54.6825 95.9477C54.4093 96.0523 54.1023 96.1046 53.7613 96.1046ZM60.9868 90.9649L59.1249 96H58.3382L56.4764 90.9649H57.3155L58.7053 94.9772H58.7578L60.1477 90.9649H60.9868ZM63.9385 96.1046C63.4535 96.1046 63.0351 95.9975 62.6831 95.7834C62.3335 95.5674 62.0634 95.2658 61.8732 94.8788C61.6855 94.4898 61.5914 94.0375 61.5914 93.5219C61.5914 93.0062 61.6855 92.5514 61.8732 92.1582C62.0634 91.7625 62.328 91.4548 62.6671 91.2339C63.008 91.0111 63.4055 90.8997 63.8597 90.8997C64.1225 90.8997 64.3809 90.9434 64.6369 91.0308C64.8923 91.1182 65.1255 91.2603 65.3348 91.4566C65.5446 91.6511 65.712 91.9089 65.8363 92.2302C65.9612 92.5514 66.0234 92.9471 66.0234 93.4172V93.7446H62.1421V93.0763H65.2369C65.2369 92.792 65.1797 92.5385 65.0665 92.3157C64.9551 92.0929 64.7951 91.9169 64.5877 91.7877C64.3821 91.6591 64.1397 91.5945 63.8597 91.5945C63.552 91.5945 63.2855 91.6708 63.0603 91.824C62.8375 91.9748 62.6658 92.1711 62.5452 92.4142C62.4252 92.6566 62.3649 92.9163 62.3649 93.1939V93.64C62.3649 94.0203 62.4308 94.3422 62.5618 94.6068C62.6954 94.8689 62.88 95.0689 63.1157 95.2068C63.352 95.3422 63.6258 95.4098 63.9385 95.4098C64.1421 95.4098 64.3255 95.3815 64.4892 95.3249C64.6554 95.2658 64.7988 95.1785 64.9188 95.0628C65.0388 94.9446 65.1317 94.7982 65.1975 94.6234L65.9446 94.8332C65.8658 95.0868 65.7341 95.3095 65.5483 95.5015C65.3625 95.6917 65.1329 95.8406 64.8597 95.9477C64.5865 96.0523 64.2794 96.1046 63.9385 96.1046ZM67.9735 89.2868V96H67.2V89.2868H67.9735ZM71.4363 96.1046C70.9815 96.1046 70.5828 95.9969 70.24 95.7803C69.8991 95.5643 69.632 95.2615 69.44 94.8726C69.2498 94.4837 69.1545 94.0289 69.1545 93.5089C69.1545 92.984 69.2498 92.5262 69.44 92.1354C69.632 91.744 69.8991 91.4406 70.24 91.224C70.5828 91.0074 70.9815 90.8997 71.4363 90.8997C71.8905 90.8997 72.2886 91.0074 72.6295 91.224C72.9723 91.4406 73.2388 91.744 73.4289 92.1354C73.6215 92.5262 73.7175 92.984 73.7175 93.5089C73.7175 94.0289 73.6215 94.4837 73.4289 94.8726C73.2388 95.2615 72.9723 95.5643 72.6295 95.7803C72.2886 95.9969 71.8905 96.1046 71.4363 96.1046ZM71.4363 95.4098C71.7815 95.4098 72.0658 95.3212 72.2886 95.1446C72.5114 94.9674 72.6763 94.7348 72.7834 94.4462C72.8905 94.1575 72.944 93.8455 72.944 93.5089C72.944 93.1723 72.8905 92.8585 72.7834 92.568C72.6763 92.2775 72.5114 92.0425 72.2886 91.8634C72.0658 91.6843 71.7815 91.5945 71.4363 91.5945C71.0911 91.5945 70.8068 91.6843 70.584 91.8634C70.3612 92.0425 70.1963 92.2775 70.0892 92.568C69.9821 92.8585 69.9286 93.1723 69.9286 93.5089C69.9286 93.8455 69.9821 94.1575 70.0892 94.4462C70.1963 94.7348 70.3612 94.9674 70.584 95.1446C70.8068 95.3212 71.0911 95.4098 71.4363 95.4098ZM74.8985 97.888V90.9649H75.6461V91.7649H75.7378C75.7945 91.6775 75.8732 91.5662 75.9735 91.4308C76.0763 91.2929 76.2228 91.1705 76.4129 91.0634C76.6055 90.9538 76.8652 90.8997 77.1932 90.8997C77.6172 90.8997 77.9908 91.0055 78.3145 91.2172C78.6375 91.4295 78.8898 91.7298 79.0714 92.1188C79.2529 92.5077 79.3434 92.9668 79.3434 93.4954C79.3434 94.0289 79.2529 94.4911 79.0714 94.8825C78.8898 95.2714 78.6388 95.5729 78.3175 95.7871C77.9963 95.9988 77.6258 96.1046 77.2061 96.1046C76.8831 96.1046 76.624 96.0511 76.4295 95.944C76.2351 95.8351 76.0849 95.7114 75.9803 95.5742C75.8751 95.4338 75.7945 95.3182 75.7378 95.2265H75.672V97.888H74.8985ZM75.6591 93.4825C75.6591 93.8628 75.7145 94.1982 75.8265 94.4886C75.9378 94.7772 76.1003 95.0037 76.3145 95.1674C76.5286 95.3292 76.7908 95.4098 77.1015 95.4098C77.4246 95.4098 77.6948 95.3249 77.9108 95.1545C78.1292 94.9815 78.2935 94.7502 78.4025 94.4591C78.5138 94.1668 78.5698 93.8406 78.5698 93.4825C78.5698 93.1286 78.5151 92.8092 78.4061 92.5255C78.2991 92.2388 78.136 92.0129 77.9175 91.8468C77.7009 91.6788 77.4289 91.5945 77.1015 91.5945C76.7865 91.5945 76.5225 91.6745 76.3083 91.8338C76.0941 91.9908 75.9323 92.2117 75.8228 92.496C75.7138 92.7778 75.6591 93.1065 75.6591 93.4825ZM82.6345 96.1046C82.1495 96.1046 81.7311 95.9975 81.3791 95.7834C81.0295 95.5674 80.7594 95.2658 80.5692 94.8788C80.3815 94.4898 80.2874 94.0375 80.2874 93.5219C80.2874 93.0062 80.3815 92.5514 80.5692 92.1582C80.7594 91.7625 81.024 91.4548 81.3625 91.2339C81.7034 91.0111 82.1015 90.8997 82.5557 90.8997C82.8178 90.8997 83.0769 90.9434 83.3329 91.0308C83.5883 91.1182 83.8209 91.2603 84.0308 91.4566C84.2406 91.6511 84.408 91.9089 84.5323 92.2302C84.6572 92.5514 84.7194 92.9471 84.7194 93.4172V93.7446H80.8381V93.0763H83.9329C83.9329 92.792 83.8757 92.5385 83.7625 92.3157C83.6505 92.0929 83.4911 91.9169 83.2837 91.7877C83.0781 91.6591 82.8357 91.5945 82.5557 91.5945C82.248 91.5945 81.9809 91.6708 81.7563 91.824C81.5329 91.9748 81.3618 92.1711 81.2412 92.4142C81.1212 92.6566 81.0609 92.9163 81.0609 93.1939V93.64C81.0609 94.0203 81.1268 94.3422 81.2578 94.6068C81.3914 94.8689 81.576 95.0689 81.8117 95.2068C82.048 95.3422 82.3218 95.4098 82.6345 95.4098C82.8375 95.4098 83.0215 95.3815 83.1852 95.3249C83.3514 95.2658 83.4948 95.1785 83.6148 95.0628C83.7348 94.9446 83.8277 94.7982 83.8935 94.6234L84.6406 94.8332C84.5618 95.0868 84.4295 95.3095 84.2443 95.5015C84.0585 95.6917 83.8289 95.8406 83.5557 95.9477C83.2825 96.0523 82.9754 96.1046 82.6345 96.1046ZM85.896 96V90.9649H86.6437V91.7255H86.696C86.7877 91.4763 86.9538 91.2745 87.1945 91.1194C87.4345 90.9637 87.7058 90.8862 88.0074 90.8862C88.064 90.8862 88.1348 90.8874 88.2203 90.8898C88.3052 90.8917 88.3698 90.8954 88.4135 90.8997V91.6862C88.3877 91.6794 88.3274 91.6695 88.2332 91.6566C88.1415 91.6412 88.0443 91.6338 87.9415 91.6338C87.6966 91.6338 87.4781 91.6849 87.2861 91.7877C87.096 91.8886 86.9452 92.0283 86.8338 92.2074C86.7243 92.3846 86.6695 92.5865 86.6695 92.8135V96H85.896Z" fill="black"/>
</mask>
<g mask="url(#mask1_2_20)">
<path d="M45.1206 96H44.9668V96.1539H45.1206V96ZM45.1206 89.2868V89.1329H44.9668V89.2868H45.1206ZM48.9559 89.6899L48.8786 89.8228L48.8791 89.8234L48.9559 89.6899ZM50.0212 90.8406L49.8833 90.9083L49.8833 90.9089L50.0212 90.8406ZM48.9297 95.5969L49.0052 95.7311L49.0057 95.7305L48.9297 95.5969ZM45.9335 95.2788H45.7797V95.4326H45.9335V95.2788ZM49.3394 91.2308L49.1991 91.2936L49.1992 91.2942L49.3394 91.2308ZM45.9335 90.008V89.8542H45.7797V90.008H45.9335ZM47.1923 95.8462H45.1206V96.1539H47.1923V95.8462ZM45.2745 96V89.2868H44.9668V96H45.2745ZM45.1206 89.4406H47.2841V89.1329H45.1206V89.4406ZM47.2841 89.4406C47.914 89.4406 48.4434 89.5705 48.8786 89.8228L49.033 89.5569C48.5417 89.272 47.9566 89.1329 47.2841 89.1329V89.4406ZM48.8791 89.8234C49.3148 90.0739 49.6492 90.4345 49.8833 90.9083L50.1591 90.7723C49.8994 90.2462 49.5235 89.8388 49.0326 89.5563L48.8791 89.8234ZM49.8833 90.9089C50.1175 91.3809 50.2378 91.9532 50.2378 92.6302H50.5455C50.5455 91.9175 50.419 91.296 50.1591 90.7723L49.8833 90.9089ZM50.2378 92.6302C50.2378 93.3114 50.1164 93.8892 49.8799 94.3686L50.1558 94.5046C50.4175 93.9742 50.5455 93.3477 50.5455 92.6302H50.2378ZM49.8801 94.368C49.6442 94.8437 49.3026 95.2074 48.8535 95.4634L49.0057 95.7305C49.5094 95.4443 49.8934 95.0339 50.1558 94.5046L49.8801 94.368ZM48.854 95.4628C48.4057 95.7157 47.8541 95.8462 47.1923 95.8462V96.1539C47.8942 96.1539 48.5007 96.0154 49.0052 95.7311L48.854 95.4628ZM45.9335 95.4326H47.1399V95.1249H45.9335V95.4326ZM47.1399 95.4326C47.714 95.4326 48.203 95.3219 48.5977 95.0905L48.442 94.8246C48.107 95.0215 47.6759 95.1249 47.1399 95.1249V95.4326ZM48.5977 95.0905C48.9908 94.8597 49.2843 94.5305 49.4762 94.1065L49.1959 93.9797C49.0295 94.3471 48.7788 94.6271 48.442 94.8246L48.5977 95.0905ZM49.4762 94.1065C49.6665 93.6868 49.7588 93.1932 49.7588 92.6302H49.4511C49.4511 93.16 49.3641 93.6086 49.1959 93.9797L49.4762 94.1065ZM49.7588 92.6302C49.7588 92.072 49.6676 91.5828 49.4796 91.1674L49.1992 91.2942C49.3652 91.6609 49.4511 92.1046 49.4511 92.6302H49.7588ZM49.4796 91.1674C49.2903 90.7471 49.0053 90.4203 48.6249 90.1939L48.4667 90.4579C48.79 90.6505 49.0343 90.9274 49.1991 91.2936L49.4796 91.1674ZM48.6249 90.1939C48.2434 89.9643 47.7765 89.8542 47.2316 89.8542V90.1619C47.7358 90.1619 48.1446 90.2634 48.4667 90.4579L48.6249 90.1939ZM47.2316 89.8542H45.9335V90.1619H47.2316V89.8542ZM45.7797 90.008V95.2788H46.0874V90.008H45.7797ZM52.5059 95.7834L52.4249 95.9145L52.4259 95.9151L52.5059 95.7834ZM51.6962 94.8788L51.5577 94.9459L51.5582 94.9471L51.6962 94.8788ZM55.1578 91.4566L55.0526 91.5692L55.0532 91.5699L55.1578 91.4566ZM55.8462 93.7446V93.8985H56V93.7446H55.8462ZM51.965 93.7446H51.8112V93.8985H51.965V93.7446ZM51.965 93.0763V92.9225H51.8112V93.0763H51.965ZM55.0594 93.0763V93.2302H55.2133V93.0763H55.0594ZM54.889 92.3157L54.7514 92.3846L54.7519 92.3852L54.889 92.3157ZM54.4104 91.7877L54.3286 91.9182L54.3292 91.9188L54.4104 91.7877ZM52.3846 94.6068L52.2468 94.6751L52.2474 94.6763L52.3846 94.6068ZM52.9386 95.2068L52.861 95.3397L52.862 95.3403L52.9386 95.2068ZM54.3121 95.3249L54.3625 95.4702L54.3636 95.4695L54.3121 95.3249ZM54.7415 95.0628L54.8482 95.1735L54.8492 95.1723L54.7415 95.0628ZM55.0201 94.6234L55.0617 94.4751L54.9257 94.4369L54.8761 94.5692L55.0201 94.6234ZM55.7675 94.8332L55.9144 94.8788L55.9613 94.7274L55.809 94.6849L55.7675 94.8332ZM55.3708 95.5015L55.4809 95.6092L55.4815 95.6086L55.3708 95.5015ZM54.6825 95.9477L54.7376 96.0911H54.7386L54.6825 95.9477ZM53.7614 95.9508C53.2994 95.9508 52.9096 95.8492 52.5859 95.6523L52.4259 95.9151C52.8058 96.1465 53.2531 96.2585 53.7614 96.2585V95.9508ZM52.5868 95.6529C52.263 95.4523 52.0123 95.1735 51.8343 94.8111L51.5582 94.9471C51.7604 95.3582 52.0495 95.6825 52.4249 95.9145L52.5868 95.6529ZM51.8348 94.8123C51.6587 94.4474 51.5682 94.0191 51.5682 93.5219H51.2605C51.2605 94.0566 51.3579 94.5323 51.5577 94.9459L51.8348 94.8123ZM51.5682 93.5219C51.5682 93.0246 51.6586 92.5939 51.8351 92.2246L51.5576 92.0917C51.3582 92.5095 51.2605 92.9871 51.2605 93.5219H51.5682ZM51.8351 92.2246C52.0141 91.8523 52.2604 91.5668 52.5735 91.3625L52.4055 91.1052C52.0412 91.3422 51.7588 91.6726 51.5576 92.0917L51.8351 92.2246ZM52.5735 91.3625C52.8865 91.1582 53.2545 91.0536 53.6827 91.0536V90.7459C53.2018 90.7459 52.7743 90.864 52.4055 91.1052L52.5735 91.3625ZM53.6827 91.0536C53.9275 91.0536 54.1697 91.0942 54.4098 91.176L54.5094 90.8849C54.2382 90.792 53.9624 90.7459 53.6827 90.7459V91.0536ZM54.4098 91.176C54.6435 91.256 54.8577 91.3865 55.0526 91.5692L55.263 91.3446C55.0383 91.1342 54.787 90.9797 54.5094 90.8849L54.4098 91.176ZM55.0532 91.5699C55.2427 91.7452 55.398 91.9822 55.5159 92.2862L55.8028 92.1748C55.6714 91.8363 55.4924 91.5569 55.2624 91.344L55.0532 91.5699ZM55.5159 92.2862C55.6316 92.584 55.6923 92.9594 55.6923 93.4172H56C56 92.9348 55.9362 92.5188 55.8028 92.1748L55.5159 92.2862ZM55.6923 93.4172V93.7446H56V93.4172H55.6923ZM55.8462 93.5908H51.965V93.8985H55.8462V93.5908ZM52.1189 93.7446V93.0763H51.8112V93.7446H52.1189ZM51.965 93.2302H55.0594V92.9225H51.965V93.2302ZM55.2133 93.0763C55.2133 92.7711 55.1521 92.4929 55.026 92.2455L54.7519 92.3852C54.8531 92.584 54.9056 92.8129 54.9056 93.0763H55.2133ZM55.0266 92.2468C54.9027 91.9988 54.7239 91.8012 54.4916 91.6572L54.3292 91.9188C54.5122 92.032 54.6524 92.1865 54.7514 92.3846L55.0266 92.2468ZM54.4916 91.6572C54.2581 91.5108 53.9868 91.4406 53.6827 91.4406V91.7483C53.938 91.7483 54.1513 91.8068 54.3286 91.9182L54.4916 91.6572ZM53.6827 91.4406C53.3479 91.4406 53.0503 91.5243 52.7964 91.6966L52.969 91.9514C53.1654 91.8179 53.4012 91.7483 53.6827 91.7483V91.4406ZM52.7964 91.6966C52.5513 91.8622 52.3623 92.0794 52.2304 92.3459L52.5061 92.4825C52.6145 92.2634 52.7684 92.0868 52.969 91.9514L52.7964 91.6966ZM52.2304 92.3459C52.0994 92.6099 52.0341 92.8935 52.0341 93.1939H52.3418C52.3418 92.9397 52.3967 92.7028 52.5061 92.4825L52.2304 92.3459ZM52.0341 93.1939V93.64H52.3418V93.1939H52.0341ZM52.0341 93.64C52.0341 94.0369 52.1025 94.3846 52.2468 94.6751L52.5225 94.5385C52.4044 94.3003 52.3418 94.0031 52.3418 93.64H52.0341ZM52.2474 94.6763C52.3931 94.9631 52.5975 95.1859 52.861 95.3397L53.0161 95.0739C52.8076 94.952 52.6428 94.7754 52.5218 94.5372L52.2474 94.6763ZM52.862 95.3403C53.1246 95.4911 53.426 95.5637 53.7614 95.5637V95.256C53.4717 95.256 53.2246 95.1932 53.0152 95.0732L52.862 95.3403ZM53.7614 95.5637C53.9789 95.5637 54.1798 95.5336 54.3625 95.4702L54.2617 95.1791C54.1165 95.2295 53.9503 95.256 53.7614 95.256V95.5637ZM54.3636 95.4695C54.5491 95.4037 54.7114 95.3052 54.8482 95.1735L54.6347 94.952C54.5312 95.0517 54.4072 95.1274 54.2606 95.1797L54.3636 95.4695ZM54.8492 95.1723C54.9871 95.0369 55.0916 94.8708 55.1642 94.6775L54.8761 94.5692C54.8175 94.7255 54.7362 94.8523 54.6337 94.9526L54.8492 95.1723ZM54.9785 94.7711L55.7259 94.9809L55.809 94.6849L55.0617 94.4751L54.9785 94.7711ZM55.6206 94.7877C55.549 95.0179 55.4294 95.2197 55.2602 95.3951L55.4815 95.6086C55.6839 95.3994 55.8286 95.1551 55.9144 94.8788L55.6206 94.7877ZM55.2608 95.3945C55.0918 95.5674 54.8813 95.7046 54.6263 95.8043L54.7386 96.0911C55.03 95.9766 55.2785 95.8166 55.4809 95.6092L55.2608 95.3945ZM54.6273 95.8037C54.3744 95.9009 54.0865 95.9508 53.7614 95.9508V96.2585C54.1181 96.2585 54.4442 96.2037 54.7376 96.0911L54.6273 95.8037ZM60.9868 90.9649L61.1311 91.0185L61.2078 90.8111H60.9868V90.9649ZM59.1249 96V96.1539H59.2321L59.2692 96.0536L59.1249 96ZM58.3382 96L58.1939 96.0536L58.2311 96.1539H58.3382V96ZM56.4764 90.9649V90.8111H56.2554L56.3321 91.0185L56.4764 90.9649ZM57.3155 90.9649L57.4609 90.9145L57.425 90.8111H57.3155V90.9649ZM58.7054 94.9772L58.56 95.0277L58.5958 95.1311H58.7054V94.9772ZM58.7578 94.9772V95.1311H58.8673L58.9032 95.0277L58.7578 94.9772ZM60.1477 90.9649V90.8111H60.0381L60.0023 90.9145L60.1477 90.9649ZM60.8425 90.9114L58.9807 95.9465L59.2692 96.0536L61.1311 91.0185L60.8425 90.9114ZM59.1249 95.8462H58.3382V96.1539H59.1249V95.8462ZM58.4825 95.9465L56.6206 90.9114L56.3321 91.0185L58.1939 96.0536L58.4825 95.9465ZM56.4764 91.1188H57.3155V90.8111H56.4764V91.1188ZM57.1702 91.0154L58.56 95.0277L58.8507 94.9268L57.4609 90.9145L57.1702 91.0154ZM58.7054 95.1311H58.7578V94.8234H58.7054V95.1311ZM58.9032 95.0277L60.293 91.0154L60.0023 90.9145L58.6124 94.9268L58.9032 95.0277ZM60.1477 91.1188H60.9868V90.8111H60.1477V91.1188ZM62.6831 95.7834L62.6025 95.9145L62.6031 95.9151L62.6831 95.7834ZM61.8732 94.8788L61.7348 94.9459L61.7354 94.9471L61.8732 94.8788ZM65.3348 91.4566L65.2295 91.5692L65.2308 91.5699L65.3348 91.4566ZM66.0234 93.7446V93.8985H66.1772V93.7446H66.0234ZM62.1422 93.7446H61.9883V93.8985H62.1422V93.7446ZM62.1422 93.0763V92.9225H61.9883V93.0763H62.1422ZM65.2369 93.0763V93.2302H65.3908V93.0763H65.2369ZM65.0665 92.3157L64.9286 92.3846L64.9292 92.3852L65.0665 92.3157ZM64.5877 91.7877L64.5058 91.9182L64.5065 91.9188L64.5877 91.7877ZM62.5618 94.6068L62.424 94.6751L62.4246 94.6763L62.5618 94.6068ZM63.1157 95.2068L63.0381 95.3397L63.0394 95.3403L63.1157 95.2068ZM64.4892 95.3249L64.5397 95.4702L64.5409 95.4695L64.4892 95.3249ZM64.9188 95.0628L65.0252 95.1735L65.0265 95.1723L64.9188 95.0628ZM65.1975 94.6234L65.2388 94.4751L65.1028 94.4369L65.0535 94.5692L65.1975 94.6234ZM65.9446 94.8332L66.0917 94.8788L66.1385 94.7274L65.9865 94.6849L65.9446 94.8332ZM65.5483 95.5015L65.6585 95.6092L65.6591 95.6086L65.5483 95.5015ZM63.9385 95.9508C63.4769 95.9508 63.0868 95.8492 62.7631 95.6523L62.6031 95.9151C62.9834 96.1465 63.4302 96.2585 63.9385 96.2585V95.9508ZM62.7643 95.6529C62.44 95.4523 62.1895 95.1735 62.0117 94.8111L61.7354 94.9471C61.9378 95.3582 62.2271 95.6825 62.6025 95.9145L62.7643 95.6529ZM62.0123 94.8123C61.8357 94.4474 61.7452 94.0191 61.7452 93.5219H61.4378C61.4378 94.0566 61.5352 94.5323 61.7348 94.9459L62.0123 94.8123ZM61.7452 93.5219C61.7452 93.0246 61.8357 92.5939 62.0123 92.2246L61.7348 92.0917C61.5352 92.5095 61.4378 92.9871 61.4378 93.5219H61.7452ZM62.0123 92.2246C62.1914 91.8523 62.4375 91.5668 62.7508 91.3625L62.5828 91.1052C62.2185 91.3422 61.936 91.6726 61.7348 92.0917L62.0123 92.2246ZM62.7508 91.3625C63.064 91.1582 63.432 91.0536 63.8597 91.0536V90.7459C63.3791 90.7459 62.9514 90.864 62.5828 91.1052L62.7508 91.3625ZM63.8597 91.0536C64.1046 91.0536 64.3471 91.0942 64.5871 91.176L64.6868 90.8849C64.4154 90.792 64.1397 90.7459 63.8597 90.7459V91.0536ZM64.5871 91.176C64.8209 91.256 65.0351 91.3865 65.2295 91.5692L65.44 91.3446C65.2154 91.1342 64.9643 90.9797 64.6868 90.8849L64.5871 91.176ZM65.2308 91.5699C65.4197 91.7452 65.5754 91.9822 65.6929 92.2862L65.9803 92.1748C65.8486 91.8363 65.6695 91.5569 65.4394 91.344L65.2308 91.5699ZM65.6929 92.2862C65.8086 92.584 65.8695 92.9594 65.8695 93.4172H66.1772C66.1772 92.9348 66.1132 92.5188 65.9803 92.1748L65.6929 92.2862ZM65.8695 93.4172V93.7446H66.1772V93.4172H65.8695ZM66.0234 93.5908H62.1422V93.8985H66.0234V93.5908ZM62.296 93.7446V93.0763H61.9883V93.7446H62.296ZM62.1422 93.2302H65.2369V92.9225H62.1422V93.2302ZM65.3908 93.0763C65.3908 92.7711 65.3292 92.4929 65.2031 92.2455L64.9292 92.3852C65.0302 92.584 65.0831 92.8129 65.0831 93.0763H65.3908ZM65.2037 92.2468C65.08 91.9988 64.9009 91.8012 64.6689 91.6572L64.5065 91.9188C64.6892 92.032 64.8295 92.1865 64.9286 92.3846L65.2037 92.2468ZM64.6689 91.6572C64.4351 91.5108 64.1643 91.4406 63.8597 91.4406V91.7483C64.1151 91.7483 64.3286 91.8068 64.5058 91.9182L64.6689 91.6572ZM63.8597 91.4406C63.5249 91.4406 63.2277 91.5243 62.9735 91.6966L63.1465 91.9514C63.3428 91.8179 63.5785 91.7483 63.8597 91.7483V91.4406ZM62.9735 91.6966C62.728 91.8622 62.5397 92.0794 62.4074 92.3459L62.6831 92.4825C62.792 92.2634 62.9458 92.0868 63.1465 91.9514L62.9735 91.6966ZM62.4074 92.3459C62.2769 92.6099 62.2111 92.8935 62.2111 93.1939H62.5188C62.5188 92.9397 62.5742 92.7028 62.6831 92.4825L62.4074 92.3459ZM62.2111 93.1939V93.64H62.5188V93.1939H62.2111ZM62.2111 93.64C62.2111 94.0369 62.28 94.3846 62.424 94.6751L62.6997 94.5385C62.5815 94.3003 62.5188 94.0031 62.5188 93.64H62.2111ZM62.4246 94.6763C62.5705 94.9631 62.7748 95.1859 63.0381 95.3397L63.1932 95.0739C62.9846 94.952 62.8203 94.7754 62.6991 94.5372L62.4246 94.6763ZM63.0394 95.3403C63.3022 95.4911 63.6031 95.5637 63.9385 95.5637V95.256C63.6492 95.256 63.4018 95.1932 63.1926 95.0732L63.0394 95.3403ZM63.9385 95.5637C64.1563 95.5637 64.3569 95.5336 64.5397 95.4702L64.4388 95.1791C64.2935 95.2295 64.1274 95.256 63.9385 95.256V95.5637ZM64.5409 95.4695C64.7262 95.4037 64.8886 95.3052 65.0252 95.1735L64.8123 94.952C64.7083 95.0517 64.5846 95.1274 64.4375 95.1797L64.5409 95.4695ZM65.0265 95.1723C65.1643 95.0369 65.2689 94.8708 65.3415 94.6775L65.0535 94.5692C64.9951 94.7255 64.9132 94.8523 64.8111 94.9526L65.0265 95.1723ZM65.1557 94.7711L65.9034 94.9809L65.9865 94.6849L65.2388 94.4751L65.1557 94.7711ZM65.7975 94.7877C65.7262 95.0179 65.6068 95.2197 65.4375 95.3951L65.6591 95.6086C65.8609 95.3994 66.0055 95.1551 66.0917 94.8788L65.7975 94.7877ZM65.4382 95.3945C65.2689 95.5674 65.0585 95.7046 64.8037 95.8043L64.9151 96.0911C65.2068 95.9766 65.4554 95.8166 65.6585 95.6092L65.4382 95.3945ZM64.8043 95.8037C64.5514 95.9009 64.264 95.9508 63.9385 95.9508V96.2585C64.2954 96.2585 64.6215 96.2037 64.9151 96.0911L64.8043 95.8037ZM67.9735 89.2868H68.1274V89.1329H67.9735V89.2868ZM67.9735 96V96.1539H68.1274V96H67.9735ZM67.2 96H67.0462V96.1539H67.2V96ZM67.2 89.2868V89.1329H67.0462V89.2868H67.2ZM67.8197 89.2868V96H68.1274V89.2868H67.8197ZM67.9735 95.8462H67.2V96.1539H67.9735V95.8462ZM67.3538 96V89.2868H67.0462V96H67.3538ZM67.2 89.4406H67.9735V89.1329H67.2V89.4406ZM69.44 94.8726L69.3015 94.9397L69.3022 94.9403L69.44 94.8726ZM73.4289 92.1354L73.2911 92.2025V92.2031L73.4289 92.1354ZM71.4363 95.9508C71.0068 95.9508 70.6375 95.8492 70.3218 95.6505L70.1575 95.9102C70.528 96.1434 70.9563 96.2585 71.4363 96.2585V95.9508ZM70.3218 95.6505C70.0062 95.4505 69.7588 95.1699 69.5778 94.8043L69.3022 94.9403C69.5058 95.3526 69.7908 95.6775 70.1575 95.9102L70.3218 95.6505ZM69.5778 94.8043C69.4 94.44 69.3083 94.0099 69.3083 93.5089H69.0006C69.0006 94.0474 69.0997 94.5262 69.3015 94.9397L69.5778 94.8043ZM69.3083 93.5089C69.3083 93.0031 69.4 92.5686 69.5785 92.2025L69.3015 92.0677C69.0991 92.4837 69.0006 92.9655 69.0006 93.5089H69.3083ZM69.5778 92.2031C69.7588 91.8351 70.0068 91.5539 70.3225 91.3539L70.1575 91.0942C69.7908 91.3268 69.5058 91.6529 69.3015 92.0677L69.5778 92.2031ZM70.3225 91.3539C70.6382 91.1551 71.0068 91.0536 71.4363 91.0536V90.7459C70.9563 90.7459 70.528 90.8603 70.1575 91.0942L70.3225 91.3539ZM71.4363 91.0536C71.8652 91.0536 72.2338 91.1551 72.5471 91.3539L72.712 91.0942C72.3434 90.8603 71.9163 90.7459 71.4363 90.7459V91.0536ZM72.5471 91.3539C72.8646 91.5539 73.112 91.8351 73.2911 92.2025L73.5674 92.0683C73.3655 91.6529 73.0812 91.3268 72.712 91.0942L72.5471 91.3539ZM73.2911 92.2031C73.4714 92.5692 73.5637 93.0031 73.5637 93.5089H73.8714C73.8714 92.9655 73.7717 92.4843 73.5674 92.0683L73.2911 92.2031ZM73.5637 93.5089C73.5637 94.0099 73.4714 94.44 73.2911 94.8043L73.5674 94.9403C73.7717 94.5268 73.8714 94.048 73.8714 93.5089H73.5637ZM73.2911 94.8043C73.1126 95.1692 72.8646 95.4505 72.5471 95.6505L72.7114 95.9108C73.0806 95.6782 73.3655 95.3526 73.5674 94.9397L73.2911 94.8043ZM72.5471 95.6505C72.2338 95.8492 71.8652 95.9508 71.4363 95.9508V96.2585C71.9163 96.2585 72.3434 96.144 72.712 95.9102L72.5471 95.6505ZM71.4363 95.5637C71.8086 95.5637 72.1286 95.4677 72.384 95.2652L72.1926 95.024C72.0025 95.1748 71.7545 95.256 71.4363 95.256V95.5637ZM72.384 95.2652C72.6308 95.0689 72.8117 94.8123 72.9274 94.4997L72.6394 94.3926C72.5409 94.6572 72.392 94.8659 72.1926 95.024L72.384 95.2652ZM72.9274 94.4997C73.0418 94.1926 73.0978 93.8615 73.0978 93.5089H72.7902C72.7902 93.8289 72.7391 94.1231 72.6394 94.3926L72.9274 94.4997ZM73.0978 93.5089C73.0978 93.1557 73.0418 92.824 72.928 92.5151L72.6388 92.6209C72.7391 92.8935 72.7902 93.1889 72.7902 93.5089H73.0978ZM72.928 92.5151C72.8117 92.2 72.6314 91.9415 72.3846 91.7434L72.192 91.9834C72.3914 92.1434 72.5409 92.3545 72.6388 92.6209L72.928 92.5151ZM72.3846 91.7434C72.1292 91.5379 71.8092 91.4406 71.4363 91.4406V91.7483C71.7538 91.7483 72.0018 91.8302 72.192 91.9834L72.3846 91.7434ZM71.4363 91.4406C71.0634 91.4406 70.7434 91.5379 70.4874 91.7434L70.6806 91.9834C70.8708 91.8302 71.1182 91.7483 71.4363 91.7483V91.4406ZM70.4874 91.7434C70.2412 91.9415 70.0603 92.2 69.9446 92.5151L70.2332 92.6209C70.3317 92.3545 70.4812 92.1434 70.6806 91.9834L70.4874 91.7434ZM69.9446 92.5151C69.8308 92.824 69.7748 93.1557 69.7748 93.5089H70.0825C70.0825 93.1889 70.1329 92.8935 70.2332 92.6209L69.9446 92.5151ZM69.7748 93.5089C69.7748 93.8615 69.8308 94.1926 69.9446 94.4997L70.2332 94.3926C70.1329 94.1231 70.0825 93.8289 70.0825 93.5089H69.7748ZM69.9446 94.4997C70.0609 94.8123 70.2418 95.0689 70.488 95.2652L70.6794 95.024C70.4806 94.8659 70.3311 94.6572 70.2332 94.3926L69.9446 94.4997ZM70.488 95.2652C70.744 95.4677 71.064 95.5637 71.4363 95.5637V95.256C71.1182 95.256 70.8702 95.1748 70.6794 95.024L70.488 95.2652ZM74.8985 97.888H74.7446V98.0419H74.8985V97.888ZM74.8985 90.9649V90.8111H74.7446V90.9649H74.8985ZM75.6462 90.9649H75.8V90.8111H75.6462V90.9649ZM75.6462 91.7649H75.4923V91.9188H75.6462V91.7649ZM75.7378 91.7649V91.9188H75.8209L75.8665 91.8486L75.7378 91.7649ZM76.4129 91.0634L76.4886 91.1975L76.4892 91.1969L76.4129 91.0634ZM76.4295 95.944L76.3538 96.0782L76.3551 96.0788L76.4295 95.944ZM75.9803 95.5742L75.8572 95.6665L75.8578 95.6671L75.9803 95.5742ZM75.7378 95.2265L75.8683 95.1452L75.8234 95.0726H75.7378V95.2265ZM75.672 95.2265V95.0726H75.5182V95.2265H75.672ZM75.672 97.888V98.0419H75.8258V97.888H75.672ZM76.3145 95.1674L76.2209 95.2899L76.2222 95.2905L76.3145 95.1674ZM78.4062 92.5256L78.2622 92.5791V92.5803L78.4062 92.5256ZM77.9175 91.8468L77.8234 91.968L77.8246 91.9692L77.9175 91.8468ZM76.3083 91.8339L76.3994 91.9575L76.4 91.9569L76.3083 91.8339ZM75.8228 92.496L75.9662 92.5514L75.9668 92.5508L75.8228 92.496ZM75.0523 97.888V90.9649H74.7446V97.888H75.0523ZM74.8985 91.1188H75.6462V90.8111H74.8985V91.1188ZM75.4923 90.9649V91.7649H75.8V90.9649H75.4923ZM75.6462 91.9188H75.7378V91.6111H75.6462V91.9188ZM75.8665 91.8486C75.9212 91.7649 75.9975 91.6566 76.0972 91.5225L75.8505 91.3385C75.7489 91.4751 75.6677 91.5895 75.6086 91.6812L75.8665 91.8486ZM76.0972 91.5225C76.184 91.4062 76.312 91.2966 76.4886 91.1975L76.3372 90.9292C76.1335 91.0443 75.9686 91.1797 75.8505 91.3385L76.0972 91.5225ZM76.4892 91.1969C76.6498 91.1059 76.88 91.0536 77.1932 91.0536V90.7459C76.8505 90.7459 76.5612 90.8025 76.3372 90.9299L76.4892 91.1969ZM77.1932 91.0536C77.5902 91.0536 77.9342 91.152 78.2302 91.3459L78.3988 91.0886C78.0474 90.8591 77.6443 90.7459 77.1932 90.7459V91.0536ZM78.2302 91.3459C78.5268 91.5409 78.7612 91.8179 78.9317 92.184L79.2111 92.0542C79.0185 91.6419 78.7483 91.3182 78.3988 91.0886L78.2302 91.3459ZM78.9317 92.184C79.1022 92.5483 79.1895 92.984 79.1895 93.4954H79.4972C79.4972 92.9495 79.4037 92.4671 79.2111 92.0542L78.9317 92.184ZM79.1895 93.4954C79.1895 94.0117 79.1022 94.4511 78.9317 94.8172L79.2111 94.9471C79.4037 94.5311 79.4972 94.0462 79.4972 93.4954H79.1895ZM78.9317 94.8172C78.7612 95.1834 78.5274 95.4622 78.232 95.6591L78.4025 95.9151C78.7495 95.6837 79.0191 95.3588 79.2111 94.9471L78.9317 94.8172ZM78.2326 95.6585C77.9391 95.8523 77.5988 95.9508 77.2062 95.9508V96.2585C77.6529 96.2585 78.0535 96.1452 78.4025 95.9151L78.2326 95.6585ZM77.2062 95.9508C76.8978 95.9508 76.6671 95.8997 76.5034 95.8092L76.3551 96.0788C76.5803 96.2031 76.8677 96.2585 77.2062 96.2585V95.9508ZM76.5046 95.8099C76.3237 95.7083 76.192 95.5976 76.1028 95.4806L75.8578 95.6671C75.9785 95.8259 76.1465 95.9619 76.3538 96.0782L76.5046 95.8099ZM76.1034 95.4819C76 95.3434 75.9218 95.2314 75.8683 95.1452L75.6068 95.3071C75.6671 95.4049 75.7508 95.5243 75.8572 95.6665L76.1034 95.4819ZM75.7378 95.0726H75.672V95.3803H75.7378V95.0726ZM75.5182 95.2265V97.888H75.8258V95.2265H75.5182ZM75.672 97.7342H74.8985V98.0419H75.672V97.7342ZM75.5052 93.4825C75.5052 93.8775 75.5631 94.232 75.6825 94.544L75.9698 94.4339C75.8665 94.1643 75.8129 93.848 75.8129 93.4825H75.5052ZM75.6825 94.544C75.8031 94.8554 75.9815 95.1059 76.2209 95.2899L76.408 95.0449C76.2197 94.9009 76.0726 94.6997 75.9698 94.4332L75.6825 94.544ZM76.2222 95.2905C76.4671 95.4751 76.7631 95.5637 77.1015 95.5637V95.256C76.8191 95.256 76.5914 95.1834 76.408 95.0449L76.2222 95.2905ZM77.1015 95.5637C77.4529 95.5637 77.7582 95.4708 78.0062 95.2751L77.816 95.0332C77.6314 95.1791 77.3963 95.256 77.1015 95.256V95.5637ZM78.0062 95.2751C78.2492 95.0831 78.4289 94.8271 78.5465 94.5132L78.2591 94.4049C78.1588 94.6726 78.0098 94.88 77.8154 95.0339L78.0062 95.2751ZM78.5465 94.5139C78.6652 94.2012 78.7237 93.8572 78.7237 93.4825H78.416C78.416 93.8246 78.3631 94.1317 78.2591 94.4049L78.5465 94.5139ZM78.7237 93.4825C78.7237 93.1126 78.6665 92.7742 78.5495 92.4702L78.2622 92.5803C78.3637 92.8443 78.416 93.1446 78.416 93.4825H78.7237ZM78.5502 92.4714C78.4338 92.1612 78.2548 91.9102 78.0105 91.7243L77.8246 91.9692C78.0172 92.1157 78.1637 92.3169 78.2622 92.5791L78.5502 92.4714ZM78.0123 91.7255C77.7637 91.5323 77.4566 91.4406 77.1015 91.4406V91.7483C77.4018 91.7483 77.6388 91.8246 77.8234 91.968L78.0123 91.7255ZM77.1015 91.4406C76.7594 91.4406 76.4615 91.5274 76.216 91.7102L76.4 91.9569C76.5828 91.8209 76.8135 91.7483 77.1015 91.7483V91.4406ZM76.2172 91.7095C75.976 91.8868 75.7975 92.1329 75.6794 92.4406L75.9668 92.5508C76.0671 92.2905 76.2123 92.0954 76.3994 91.9575L76.2172 91.7095ZM75.6794 92.44C75.5618 92.7434 75.5052 93.0923 75.5052 93.4825H75.8129C75.8129 93.1212 75.8652 92.8117 75.9662 92.5514L75.6794 92.44ZM81.3791 95.7834L81.2978 95.9145L81.2991 95.9151L81.3791 95.7834ZM80.5692 94.8788L80.4308 94.9459L80.4314 94.9471L80.5692 94.8788ZM84.0308 91.4566L83.9255 91.5692L83.9262 91.5699L84.0308 91.4566ZM84.7194 93.7446V93.8985H84.8732V93.7446H84.7194ZM80.8382 93.7446H80.6843V93.8985H80.8382V93.7446ZM80.8382 93.0763V92.9225H80.6843V93.0763H80.8382ZM83.9329 93.0763V93.2302H84.0868V93.0763H83.9329ZM83.7625 92.3157L83.6246 92.3846L83.6252 92.3852L83.7625 92.3157ZM83.2837 91.7877L83.2018 91.9182L83.2025 91.9188L83.2837 91.7877ZM81.2578 94.6068L81.12 94.6751L81.1206 94.6763L81.2578 94.6068ZM81.8117 95.2068L81.7341 95.3397L81.7354 95.3403L81.8117 95.2068ZM83.1852 95.3249L83.2357 95.4702L83.2369 95.4695L83.1852 95.3249ZM83.6148 95.0628L83.7212 95.1735L83.7225 95.1723L83.6148 95.0628ZM83.8935 94.6234L83.9348 94.4751L83.7988 94.4369L83.7495 94.5692L83.8935 94.6234ZM84.6406 94.8332L84.7877 94.8788L84.8345 94.7274L84.6825 94.6849L84.6406 94.8332ZM84.2443 95.5015L84.3538 95.6092L84.3545 95.6086L84.2443 95.5015ZM83.5557 95.9477L83.6111 96.0911H83.6117L83.5557 95.9477ZM82.6345 95.9508C82.1723 95.9508 81.7828 95.8492 81.4591 95.6523L81.2991 95.9151C81.6788 96.1465 82.1262 96.2585 82.6345 96.2585V95.9508ZM81.4603 95.6529C81.136 95.4523 80.8855 95.1735 80.7077 94.8111L80.4314 94.9471C80.6338 95.3582 80.9225 95.6825 81.2978 95.9145L81.4603 95.6529ZM80.7077 94.8123C80.5317 94.4474 80.4412 94.0191 80.4412 93.5219H80.1335C80.1335 94.0566 80.2314 94.5323 80.4308 94.9459L80.7077 94.8123ZM80.4412 93.5219C80.4412 93.0246 80.5317 92.5939 80.7083 92.2246L80.4308 92.0917C80.2314 92.5095 80.1335 92.9871 80.1335 93.5219H80.4412ZM80.7083 92.2246C80.8874 91.8523 81.1335 91.5668 81.4468 91.3625L81.2788 91.1052C80.9145 91.3422 80.632 91.6726 80.4308 92.0917L80.7083 92.2246ZM81.4468 91.3625C81.76 91.1582 82.1274 91.0536 82.5557 91.0536V90.7459C82.0751 90.7459 81.6474 90.864 81.2788 91.1052L81.4468 91.3625ZM82.5557 91.0536C82.8006 91.0536 83.0431 91.0942 83.2831 91.176L83.3828 90.8849C83.1114 90.792 82.8357 90.7459 82.5557 90.7459V91.0536ZM83.2831 91.176C83.5169 91.256 83.7311 91.3865 83.9255 91.5692L84.136 91.3446C83.9114 91.1342 83.6603 90.9797 83.3828 90.8849L83.2831 91.176ZM83.9262 91.5699C84.1157 91.7452 84.2714 91.9822 84.3889 92.2862L84.6757 92.1748C84.5446 91.8363 84.3655 91.5569 84.1354 91.344L83.9262 91.5699ZM84.3889 92.2862C84.5046 92.584 84.5655 92.9594 84.5655 93.4172H84.8732C84.8732 92.9348 84.8092 92.5188 84.6757 92.1748L84.3889 92.2862ZM84.5655 93.4172V93.7446H84.8732V93.4172H84.5655ZM84.7194 93.5908H80.8382V93.8985H84.7194V93.5908ZM80.992 93.7446V93.0763H80.6843V93.7446H80.992ZM80.8382 93.2302H83.9329V92.9225H80.8382V93.2302ZM84.0868 93.0763C84.0868 92.7711 84.0252 92.4929 83.8991 92.2455L83.6252 92.3852C83.7262 92.584 83.7791 92.8129 83.7791 93.0763H84.0868ZM83.8997 92.2468C83.776 91.9988 83.5969 91.8012 83.3649 91.6572L83.2025 91.9188C83.3852 92.032 83.5255 92.1865 83.6246 92.3846L83.8997 92.2468ZM83.3649 91.6572C83.1311 91.5108 82.8603 91.4406 82.5557 91.4406V91.7483C82.8111 91.7483 83.0246 91.8068 83.2018 91.9182L83.3649 91.6572ZM82.5557 91.4406C82.2209 91.4406 81.9237 91.5243 81.6695 91.6966L81.8425 91.9514C82.0388 91.8179 82.2745 91.7483 82.5557 91.7483V91.4406ZM81.6702 91.6966C81.4246 91.8622 81.2357 92.0794 81.1034 92.3459L81.3791 92.4825C81.488 92.2634 81.6418 92.0868 81.8425 91.9514L81.6702 91.6966ZM81.1034 92.3459C80.9723 92.6099 80.9071 92.8935 80.9071 93.1939H81.2148C81.2148 92.9397 81.2702 92.7028 81.3791 92.4825L81.1034 92.3459ZM80.9071 93.1939V93.64H81.2148V93.1939H80.9071ZM80.9071 93.64C80.9071 94.0369 80.976 94.3846 81.12 94.6751L81.3957 94.5385C81.2775 94.3003 81.2148 94.0031 81.2148 93.64H80.9071ZM81.1206 94.6763C81.2665 94.9631 81.4708 95.1859 81.7341 95.3397L81.8892 95.0739C81.6806 94.952 81.5157 94.7754 81.3951 94.5372L81.1206 94.6763ZM81.7354 95.3403C81.9975 95.4911 82.2991 95.5637 82.6345 95.5637V95.256C82.3446 95.256 82.0978 95.1932 81.8886 95.0732L81.7354 95.3403ZM82.6345 95.5637C82.8523 95.5637 83.0529 95.5336 83.2357 95.4702L83.1348 95.1791C82.9895 95.2295 82.8234 95.256 82.6345 95.256V95.5637ZM83.2369 95.4695C83.4221 95.4037 83.5846 95.3052 83.7212 95.1735L83.5077 94.952C83.4043 95.0517 83.2806 95.1274 83.1335 95.1797L83.2369 95.4695ZM83.7225 95.1723C83.8603 95.0369 83.9649 94.8708 84.0375 94.6775L83.7495 94.5692C83.6905 94.7255 83.6092 94.8523 83.5071 94.9526L83.7225 95.1723ZM83.8517 94.7711L84.5994 94.9809L84.6825 94.6849L83.9348 94.4751L83.8517 94.7711ZM84.4935 94.7877C84.4222 95.0179 84.3028 95.2197 84.1335 95.3951L84.3545 95.6086C84.5569 95.3994 84.7015 95.1551 84.7877 94.8788L84.4935 94.7877ZM84.1342 95.3945C83.9649 95.5674 83.7545 95.7046 83.4997 95.8043L83.6117 96.0911C83.9034 95.9766 84.1514 95.8166 84.3538 95.6092L84.1342 95.3945ZM83.5003 95.8037C83.2474 95.9009 82.9594 95.9508 82.6345 95.9508V96.2585C82.9914 96.2585 83.3175 96.2037 83.6111 96.0911L83.5003 95.8037ZM85.896 96H85.7421V96.1539H85.896V96ZM85.896 90.9649V90.8111H85.7421V90.9649H85.896ZM86.6437 90.9649H86.7975V90.8111H86.6437V90.9649ZM86.6437 91.7255H86.4898V91.8794H86.6437V91.7255ZM86.696 91.7255V91.8794H86.8031L86.8406 91.7785L86.696 91.7255ZM88.4135 90.8997H88.5674V90.76L88.4289 90.7465L88.4135 90.8997ZM88.4135 91.6862L88.3766 91.8357L88.5674 91.8831V91.6862H88.4135ZM88.2332 91.6566L88.208 91.8086L88.2123 91.8092L88.2332 91.6566ZM86.6695 96V96.1539H86.8234V96H86.6695ZM86.0498 96V90.9649H85.7421V96H86.0498ZM85.896 91.1188H86.6437V90.8111H85.896V91.1188ZM86.4898 90.9649V91.7255H86.7975V90.9649H86.4898ZM86.6437 91.8794H86.696V91.5717H86.6437V91.8794ZM86.8406 91.7785C86.9194 91.5631 87.0628 91.3871 87.2775 91.2486L87.1108 90.9895C86.8449 91.1619 86.656 91.3895 86.5514 91.6726L86.8406 91.7785ZM87.2775 91.2486C87.4917 91.1102 87.7335 91.04 88.0074 91.04V90.7323C87.6775 90.7323 87.3772 90.8179 87.1108 90.9895L87.2775 91.2486ZM88.0074 91.04C88.0621 91.04 88.1317 91.0412 88.216 91.0437L88.224 90.736C88.1385 90.7335 88.0658 90.7323 88.0074 90.7323V91.04ZM88.216 91.0437C88.3003 91.0455 88.3606 91.0486 88.3982 91.0523L88.4289 90.7465C88.3797 90.7415 88.3102 90.7379 88.224 90.736L88.216 91.0437ZM88.2597 90.8997V91.6862H88.5674V90.8997H88.2597ZM88.4511 91.5372C88.4154 91.528 88.3465 91.5169 88.2548 91.5046L88.2123 91.8092C88.3083 91.8228 88.3594 91.8314 88.3766 91.8357L88.4511 91.5372ZM88.2585 91.5052C88.1575 91.488 88.0517 91.48 87.9415 91.48V91.7877C88.0369 91.7877 88.1255 91.7945 88.208 91.8086L88.2585 91.5052ZM87.9415 91.48C87.6745 91.48 87.4308 91.536 87.2135 91.6523L87.3582 91.9237C87.5255 91.8339 87.7188 91.7877 87.9415 91.7877V91.48ZM87.2142 91.6517C87.0006 91.7649 86.8289 91.9231 86.7028 92.1262L86.9643 92.2886C87.0609 92.1329 87.1914 92.0117 87.3582 91.9237L87.2142 91.6517ZM86.7028 92.1262C86.5772 92.3292 86.5157 92.5606 86.5157 92.8136H86.8234C86.8234 92.6123 86.8714 92.4394 86.9643 92.2886L86.7028 92.1262ZM86.5157 92.8136V96H86.8234V92.8136H86.5157ZM86.6695 95.8462H85.896V96.1539H86.6695V95.8462Z" fill="#016094"/>
</g>
<defs>
<linearGradient id="paint0_linear_2_20" x1="50.1292" y1="41.9817" x2="18.4185" y2="74.2954" gradientUnits="userSpaceOnUse">
<stop stop-color="#0082E0"/>
<stop offset="0.41" stop-color="#0077B8"/>
<stop offset="0.79" stop-color="#004266"/>
<stop offset="1" stop-color="#1D4E89"/>
</linearGradient>
<linearGradient id="paint1_linear_2_20" x1="2.27692" y1="53.1199" x2="37.3292" y2="89.1815" gradientUnits="userSpaceOnUse">
<stop stop-color="#0092E0"/>
<stop offset="0.41" stop-color="#0077B8"/>
<stop offset="0.79" stop-color="#004266"/>
<stop offset="1" stop-color="#1D4E89"/>
</linearGradient>
<linearGradient id="paint2_linear_2_20" x1="44.8922" y1="17.8646" x2="76.6031" y2="50.1785" gradientUnits="userSpaceOnUse">
<stop stop-color="#0092E0"/>
<stop offset="0.41" stop-color="#0077B8"/>
<stop offset="0.79" stop-color="#004266"/>
<stop offset="1" stop-color="#1D4E89"/>
</linearGradient>
<linearGradient id="paint3_linear_2_20" x1="92.7446" y1="29.0094" x2="57.6983" y2="65.0708" gradientUnits="userSpaceOnUse">
<stop stop-color="#0092E0"/>
<stop offset="0.41" stop-color="#0077B8"/>
<stop offset="0.79" stop-color="#005D8F"/>
<stop offset="1" stop-color="#004266"/>
</linearGradient>
<linearGradient id="paint4_linear_2_20" x1="66.9538" y1="26.4247" x2="29.994" y2="64.4554" gradientUnits="userSpaceOnUse">
<stop stop-color="#0092E0"/>
<stop offset="0.41" stop-color="#0077B8"/>
<stop offset="0.79" stop-color="#004466"/>
<stop offset="1" stop-color="#1D4E89"/>
</linearGradient>
</defs>
</svg>
